<?xml version="1.0" standalone="no"?>
<!DOCTYPE svg PUBLIC "-//W3C//DTD SVG 1.1//EN" "http://www.w3.org/Graphics/SVG/1.1/DTD/svg11.dtd" >
<svg>
<metadata>
Created by FontForge 20090914 at Sat May 19 05:31:46 2018
 By www-data
Copyright (c) 2013, Danh Hong (khmertype.org)
</metadata>
<defs>
<font id="Battambang" horiz-adv-x="1400" >
  <font-face 
    font-family="Battambang"
    font-weight="400"
    font-stretch="normal"
    units-per-em="2048"
    panose-1="2 11 6 6 3 8 4 2 2 4"
    ascent="1638"
    descent="-410"
    bbox="-2430 -1200 4950 2500"
    underline-thickness="102"
    underline-position="-103"
    unicode-range="U+0020-U+200B"
  />
<missing-glyph horiz-adv-x="2048" 
 />
    <glyph glyph-name="uni17D21780" unicode="&#x17d2;&#x1780;" horiz-adv-x="0" 
d="M-700 -200c-70 0 -129.167 -11.667 -177.5 -35s-72.5 -61.666 -72.5 -114.999v-300h-150v300c0 86.667 36.667 150 110 190s170 60 290 60s216.667 -20 290 -60s110 -103.333 110 -190v-300h-150v300c0 53.333 -24.167 91.666 -72.5 114.999s-107.5 35 -177.5 35z" />
    <glyph glyph-name="uni17D21781" unicode="&#x17d2;&#x1781;" horiz-adv-x="0" 
d="M-700 -650c-133.333 0 -233.332 15.666 -299.999 46.999c-66.667 30.667 -100 76.667 -100 138c0 52 22.333 81 67 87l315 45c90.667 12 157.334 28.667 200.001 50c43.333 20 65 42.333 65 67c0 25.333 -20.667 44 -62 56c-40.667 12.667 -102.334 19 -185.001 19
c-110.667 0 -179.334 -9.66699 -206.001 -29c-29.333 -21.333 -44 -58 -44 -110c-100 0 -150 30.667 -150 92c0 46 33.333 80.667 100 104c66.667 22.667 166.667 34 300 34s233.333 -14 300 -42c66.667 -28.667 100 -71.667 100 -129c0 -50.667 -29 -92.667 -87 -126
c-58 -34 -145 -58.667 -261 -74l-303 -42c0 -31.333 21 -54.666 63 -69.999c41.333 -16 104 -24 188 -24c83.333 0 146 9.33301 188 28c41.333 18 62 44.333 62 79h150c0 -52.667 -33.333 -99 -100 -139c-66.667 -40.667 -166.667 -61 -300 -61z" />
    <glyph glyph-name="uni17D21782" unicode="&#x17d2;&#x1782;" horiz-adv-x="0" 
d="M-950 -500l100.999 100c66.667 66.667 116.334 100 149.001 100c66.667 0 100 -25 100 -75s-33.333 -75 -100 -75c-33.333 0 -83.333 -33.333 -150 -100l-100 -100h-150v300c0 86.667 36.667 150 110 190s170 60 290 60s216.667 -20 290 -60s110 -103.333 110 -190v-300
h-150v300c0 53.333 -24.167 91.666 -72.5 114.999s-107.5 35 -177.5 35s-129.167 -11.667 -177.5 -35s-72.5 -61.666 -72.5 -114.999v-150z" />
    <glyph glyph-name="uni17D21783" unicode="&#x17d2;&#x1783;" horiz-adv-x="700" 
d="M450 -410c0 -93.333 -27.165 -156.667 -81.498 -190s-135.5 -50 -243.5 -50c-80 0 -143.333 4.66699 -190 14c-46 9.33301 -75 23 -87 41c-11.333 -18 -35 -31.667 -71 -41s-86.667 -14 -152 -14c-100 0 -175 16.667 -225 50s-75 83.333 -75 150v100
c-52 0 -85.833 8.33301 -101.5 25s-23.5 43.334 -23.5 80.001c0 30 41.667 78.333 125 145h188v-311c0 -92.667 37.333 -139 112 -139c87.333 0 131 46.667 131 140v310h188v-310c0 -93.333 60.333 -140 181 -140c83.333 0 125 46.667 125 140v1403
c0 70.667 -66.667 116.667 -200 138c13.333 67.333 48.666 145.666 105.999 234.999c56.667 89.333 103 134 139 134c29.333 0 67.666 -14.333 114.999 -43l70 -43c20.667 -12.667 45 -19 73 -19c14.667 0 30.334 1.66699 47.001 5
c-6.66699 -46.667 -22.334 -87.667 -47.001 -123c-25.333 -36 -54.333 -56 -87 -60c-4 -0.666992 -8.33301 -1 -13 -1c-32 0 -73.667 14 -125 42c-26.667 14 -49 21 -67 21c-22.667 0 -38.667 -10.667 -48 -32l-27 -59c176 -38.667 264 -84.667 264 -138v-1460z" />
    <glyph glyph-name="uni17D21784" unicode="&#x17d2;&#x1784;" horiz-adv-x="0" 
d="M-800 -650c-100 0 -174.998 20.6699 -224.998 62.0029c-50 42 -75 104.667 -75 188c0 66.667 12.333 116.667 37 150c25.333 33.333 63 50 113 50c33.333 0 58.333 -8.33301 75 -25s25 -33.334 25 -50.001s-8.33301 -25 -25 -25s-33.334 -8.33301 -50.001 -25
s-25 -41.667 -25 -75c0 -36.667 12.333 -67.334 37 -92.001c25.333 -25.333 63 -38 113 -38c51.333 0 100 10.333 146 31s84 48.667 114 84s55.667 84.333 77 147c21.333 62 34.666 109.667 39.999 143s15.333 54.166 30 62.499s32.334 12.5 53.001 12.5
c26.667 0 40 -20 40 -60c-8.66699 -60 -25.334 -127.333 -50.001 -202c-24.667 -75.333 -58 -138 -100 -188s-92 -87.333 -150 -112c-58 -25.333 -124.667 -38 -200 -38z" />
    <glyph glyph-name="uni17D21785" unicode="&#x17d2;&#x1785;" horiz-adv-x="0" 
d="M-830 -130c0 52.667 25.001 78.998 75.001 78.998s75 -26.333 75 -79c0 -46 -15 -91.667 -45 -137c-30 -46 -67.333 -85 -112 -117c-45.333 -32 -99.666 -59 -162.999 -81c0 -28.667 12.333 -50 37 -64c25.333 -14 63 -21 113 -21c40 0 79.667 9.66699 119 29
c40 19.333 79.667 48 119 86l50 49c-58.667 22.667 -88 61.334 -88 116.001c0 46.667 12.333 81.334 37 104.001c25.333 23.333 63 35 113 35c43.333 0 75.666 -11.667 96.999 -35c22 -22.667 33 -57.334 33 -104.001c0 -12 -5.33301 -27.333 -16 -46h36
c18 0 51.333 12.333 100 37c0 -62 -34 -105.333 -102 -130h-48c-8.66699 0 -17.167 0.166992 -25.5 0.5s-16.166 0.833008 -23.499 1.5l-28.5 -36l-32.5 -40c-46.667 -55.333 -98.334 -97 -155.001 -125s-118.334 -42 -185.001 -42c-100 0 -175 15.333 -225 46
s-75 77 -75 139c0 63.333 16.667 97 50 101c70 9.33301 123 26 159 50s63.667 56.667 83 98c18.667 40.667 28 69.334 28 86.001zM-469.999 -270.002c4 8 6 15 6 21c0 14.667 -12 22 -36 22c-33.333 0 -50 -14.333 -50 -43c0 -18.667 18.333 -31.334 55 -38.001
c12 14.667 20.333 27.334 25 38.001z" />
    <glyph glyph-name="uni17D21786" unicode="&#x17d2;&#x1786;" horiz-adv-x="0" 
d="M-900 -100l-0.00195312 -210.001h50c66.667 0 125 -34 175 -102l75 -73c33.333 -43.333 66.666 -65 99.999 -65s58.333 12.667 75 38c16.667 24.667 25 62.334 25 113.001v100h-37c-21.333 0 -37.166 6.66699 -47.499 20s-15.5 31.333 -15.5 54
c0 18 33.333 59.667 100 125h150v-299c0 -84 -21 -146.667 -63 -188c-41.333 -42 -103.666 -63 -186.999 -63c-66.667 0 -125 34 -175 102l-75 73c-33.333 43.333 -66.666 65 -99.999 65h-50v-120c0 -80 -25 -120 -75 -120s-91.667 33.333 -125 100
c-33.333 53.333 -50 100 -50 140c0 33.333 8.33301 58.333 25 75s41.667 25 75 25v210h150z" />
    <glyph glyph-name="uni17D21787" unicode="&#x17d2;&#x1787;" horiz-adv-x="0" 
d="M-510 -650c-27.333 0 -58.667 8.66699 -94 26c-35.333 18 -71 44.667 -107 80l-37 35l-39 -35c-40 -36 -76.667 -62.667 -110 -80s-63.666 -26 -90.999 -26c-73.333 0 -126.666 31 -159.999 93s-50 128 -50 198c0 79.333 16.667 142.333 50 189s83.333 70 150 70
c33.333 0 50 -16.667 50 -50s-16.667 -50 -50 -50c-16.667 0 -29 -15 -37 -45c-8.66699 -30 -13 -68 -13 -114c0 -36.667 4.16699 -72.667 12.5 -108s30.833 -53 67.5 -53c23.333 0 96.666 49.333 219.999 148c118.667 -98.667 195.334 -148 230.001 -148
c29.333 0 48.166 16 56.499 48s12.833 56.667 13.5 74c-8 -0.666992 -16.167 -1.16699 -24.5 -1.5s-16.833 -0.5 -25.5 -0.5c-50 0 -87.667 12.667 -113 38c-24.667 24.667 -37 62 -37 112s12.333 87.333 37 112c25.333 25.333 63 38 113 38c53.333 0 96 -15 128 -45
s53.333 -74.667 64 -134c39.333 14 63.333 21 72 21c22 0 33 -14.333 33 -43c0 -23.333 -16.667 -41.666 -50 -54.999l-22.5 -8c-7.66699 -2.66699 -15.834 -5.33398 -24.501 -8.00098v-8c0 -56.667 -17 -116 -51 -178c-33.333 -61.333 -87 -92 -161 -92zM-498.001 -200
c-16.667 0 -29 -3.99902 -37 -11.999c-8.66699 -8.66699 -13 -21.334 -13 -38.001c0 -33.333 16 -50 48 -50h37c7.33301 0 11.333 0.333008 12 1c-7.33301 66 -23 99 -47 99z" />
    <glyph glyph-name="uni17D21788" unicode="&#x17d2;&#x1788;" horiz-adv-x="700" 
d="M450 -410c0 -93.333 -27.166 -156.665 -81.499 -189.998s-128.833 -50 -223.5 -50c-53.333 0 -103.333 4.66699 -150 14c-46 9.33301 -75 23 -87 41c-11.333 -18 -35 -31.667 -71 -41s-86.667 -14 -152 -14c-100 0 -175 16.667 -225 50s-75 100 -75 200v80
c0 80 -37.333 120 -112 120s-112 -40 -112 -120v-80h25c50 0 75 -16.667 75 -50c0 -32 -16.667 -73.667 -50 -125c-33.333 -50 -87.666 -75 -162.999 -75c-50 0 -75 33.333 -75 100v231c0 79.333 25 135.666 75 168.999s125 50 225 50s175 -16.667 225 -50s75 -90 75 -170
v-91c0 -92.667 37.333 -139 112 -139c87.333 0 131 46.667 131 140v310h188v-310c0 -93.333 47 -140 141 -140c70 0 105 46.667 105 140v1403c0 70.667 -66.667 116.667 -200 138c13.333 67.333 48.666 145.666 105.999 234.999c56.667 89.333 103 134 139 134
c29.333 0 67.666 -14.333 114.999 -43l70 -43c20.667 -12.667 45 -19 73 -19c14.667 0 30.334 1.66699 47.001 5c-6.66699 -46.667 -22.334 -87.667 -47.001 -123c-25.333 -36 -54.333 -56 -87 -60c-4 -0.666992 -8.33301 -1 -13 -1c-32 0 -73.667 14 -125 42
c-26.667 14 -49 21 -67 21c-22.667 0 -38.667 -10.667 -48 -32l-27 -59c176 -38.667 264 -84.667 264 -138v-1460z" />
    <glyph glyph-name="uni17D21789" unicode="&#x17d2;&#x1789;" horiz-adv-x="0" 
d="M-230 -300c0 -100 -22.333 -175.001 -67 -225.001c-45.333 -50 -113 -75 -203 -75c-75.333 0 -141 12 -197 36s-102.333 60.333 -139 109c-52.667 68.667 -99 120 -139 154c-41.333 34 -76.333 51 -105 51c-35.333 0 -65.333 -7.33301 -90 -22
c-24.667 -15.333 -44.667 -38 -60 -68v50c0 33.333 12.667 65 38 95c24.667 30 62 45 112 45c66 0 129.667 -18.333 191 -55s120.333 -92 177 -166c32.667 -43.333 67 -75.666 103 -96.999c34.667 -21.333 71 -32 109 -32c40 0 70 16.667 90 50s30 83.333 30 150
c0 33.333 -8.33301 58.333 -25 75s-41.667 25 -75 25c0 33.333 8.33301 58.333 25 75s41.667 25 75 25c50 0 87.667 -16.667 113 -50c24.667 -33.333 37 -83.333 37 -150z" />
    <glyph glyph-name="uni17D2178A" unicode="&#x17d2;&#x178a;" horiz-adv-x="0" 
d="M-950 -470v-67c33.333 12.667 50 28 50 46c0 14 -16.667 21 -50 21zM-1100 -350c0 86.667 36.667 150 110 190s170 60 290 60s216.667 -20 290 -60s110 -103.333 110 -190v-300h-150v300c0 53.333 -24.167 91.666 -72.5 114.999s-107.5 35 -177.5 35
s-129.167 -11.667 -177.5 -35s-72.5 -61.666 -72.5 -114.999v-20c50 0 87.667 -10 113 -30c24.667 -20 37 -50 37 -90c0 -46.667 -25 -85 -75 -115s-100 -45 -150 -45s-75 25 -75 75v225z" />
    <glyph glyph-name="uni17D2178B" unicode="&#x17d2;&#x178b;" horiz-adv-x="0" 
d="M-500 -119c0 22.667 8.33203 40 24.999 52c16.667 11.333 41.667 17 75 17s58.333 -11.667 75 -35c16.667 -22.667 25 -57 25 -103v-376c0 -28.667 -9 -50 -27 -64c-17.333 -14.667 -44 -22 -80 -22l-276 146l-113 -110c-25.333 -24 -45 -36 -59 -36
s-30.333 13.333 -49 40l-170 236c-16.667 22.667 -25 53.667 -25 93c0 38 29.333 61 88 69c60.667 8 115.334 14 164.001 18c49.333 3.33301 95 5 137 5h261c-17.333 0.666992 -30 7 -38 19c-8.66699 11.333 -13 28.333 -13 51zM-450.001 -301l-272.999 -0.000976562
c-40 0 -78.667 -1.66699 -116 -5c-36.667 -3.33301 -73.334 -8.66602 -110.001 -15.999l110 -158l140 116l249 -106v169z" />
    <glyph glyph-name="uni17D2178C" unicode="&#x17d2;&#x178c;" horiz-adv-x="0" 
d="M-950 -221c46.667 0 69.998 -10.335 69.998 -31.002c0 -23.333 -11.667 -45.333 -35 -66s-60 -31 -110 -31s-75 21.667 -75 65v53c0 35.333 28.333 74.333 85 117s101.667 64 135 64s93.333 -32 180 -96c86.667 64 146.667 96 180 96s78.333 -21.333 135 -64
s85 -84.334 85 -125.001c0 -37.333 -21.667 -69.333 -65 -96c-42.667 -26 -108 -50.667 -196 -74l-389 -103c33.333 -14 75 -21 125 -21c49.333 0 111.333 6.33301 186 19s137.667 45.334 189 98.001l150 24v-197c0 -28.667 -8.33301 -50 -25 -64
c-16.667 -14.667 -75 -22 -175 -22c33.333 28.667 50 57.334 50 86.001v42c-59.333 -33.333 -126.666 -58.833 -201.999 -76.5s-158 -26.5 -248 -26.5c-66.667 0 -116.667 11.667 -150 35s-50 58 -50 104c0 50 22.333 80.333 67 91l449 113
c44.667 13.333 78.334 27.333 101.001 42c22 14 33 29.333 33 46c0 20.667 -9 35.667 -27 45c-18.667 8.66699 -35.667 13 -51 13c-16 0 -73.333 -38 -172 -114c-104 76 -163.667 114 -179 114s-31 -4.66699 -47 -14s-24 -24.666 -24 -45.999z" />
    <glyph glyph-name="uni17D2178D" unicode="&#x17d2;&#x178d;" horiz-adv-x="700" 
d="M-932 -475v-75c27.333 0 41 16.667 41 50c0 8 -3.66699 14.333 -11 19c-6.66699 4 -16.667 6 -30 6zM-270 -330h25.0039c53.333 0 115 -36.667 185 -110s141.667 -110 215 -110c63.333 0 95 50.333 95 151v1392c0 70.667 -66.667 116.667 -200 138
c13.333 67.333 48.666 145.666 105.999 234.999c56.667 89.333 103 134 139 134c29.333 0 67.666 -14.333 114.999 -43l70 -43c20.667 -12.667 45 -19 73 -19c14.667 0 30.334 1.66699 47.001 5c-6.66699 -46.667 -22.334 -87.667 -47.001 -123
c-25.333 -36 -54.333 -56 -87 -60c-4 -0.666992 -8.33301 -1 -13 -1c-32 0 -73.667 14 -125 42c-26.667 14 -49 21 -67 21c-22.667 0 -38.667 -10.667 -48 -32l-27 -59c176 -38.667 264 -84.667 264 -138v-1449c0 -167.333 -98.333 -251 -295 -251
c-100 0 -191.667 46 -275 138c-50 54.667 -91.667 82 -125 82h-25v-100c0 -80 -35 -120 -105 -120c-56.667 0 -101.667 28.333 -135 85s-50 101.667 -50 135s8.33301 58.333 25 75c16 16 39 24.333 69 25h-1c0 42.667 -17.667 78.334 -53 107.001c-8 6 -17 9 -27 9
c-36 0 -86.667 -39 -152 -117c-66 78 -117 117 -153 117c-10 0 -19 -3 -27 -9c-35.333 -28.667 -53 -64.334 -53 -107.001v-45c42 0 73.333 -10.333 94 -31c20.667 -21.333 31 -52.666 31 -93.999c0 -100 -41.667 -150 -125 -150c-132 0 -198 33.333 -198 100v220
c0 81.333 35.833 148.333 107.5 201s125.167 79 160.5 79c29.333 0 83.666 -38 162.999 -114c79.333 76 133.666 114 162.999 114c34.667 0 87.667 -26.333 159 -79s107 -119.667 107 -201z" />
    <glyph glyph-name="uni17D2178E" unicode="&#x17d2;&#x178e;" horiz-adv-x="0" 
d="M-2250 -450v-77c33.333 19.333 50 38 50 56c0 14 -16.667 21 -50 21zM-1399 -452l-168 -143.999c-41.333 -35.333 -80 -53 -116 -53h-2c-83.333 0 -125 31.333 -125 94v225c0 53.333 -19.167 88.333 -57.5 105s-92.5 25 -162.5 25s-124.167 -8.33301 -162.5 -25
s-57.5 -51.667 -57.5 -105v-20c50 0 87.667 -10 113 -30c24.667 -20 37 -50 37 -90c0 -46.667 -25 -88.334 -75 -125.001s-110 -55 -180 -55c-50 0 -75 25 -75 75v245c0 86.667 36.667 146.667 110 180s170 50 290 50s216.667 -16.667 290 -50s110 -93.333 110 -180v-144
l230 190l230 -190v144c0 86.667 36.667 146.667 110 180s170 50 290 50s216.667 -16.667 290 -50s110 -93.333 110 -180v-320h-180v320c0 53.333 -19.167 88.333 -57.5 105s-92.5 25 -162.5 25s-124.167 -8.33301 -162.5 -25s-57.5 -51.667 -57.5 -105v-225
c0 -62.667 -41.667 -94 -125 -94h-2c-36 0 -74.333 17.667 -115 53z" />
    <glyph glyph-name="uni17D2178F" unicode="&#x17d2;&#x178f;" horiz-adv-x="0" 
d="M-950 -470v-67c33.333 12.667 50 28 50 46c0 14 -16.667 21 -50 21zM-1100 -350c0 86.667 36.667 150 110 190s170 60 290 60s216.667 -20 290 -60s110 -103.333 110 -190v-300h-150v300c0 53.333 -24.167 91.666 -72.5 114.999s-107.5 35 -177.5 35
s-129.167 -11.667 -177.5 -35s-72.5 -61.666 -72.5 -114.999v-20c50 0 87.667 -10 113 -30c24.667 -20 37 -50 37 -90c0 -46.667 -25 -85 -75 -115s-100 -45 -150 -45s-75 25 -75 75v225z" />
    <glyph glyph-name="uni17D21790" unicode="&#x17d2;&#x1790;" horiz-adv-x="0" 
d="M-1200 -400c0 83.333 29.334 153.998 88.001 211.998c58 58.667 145.333 88 262 88c109.333 0 203.333 -28 282 -84c77.333 -55.333 133.666 -116.333 168.999 -183c34.667 -66.667 67 -113.667 97 -141c30.667 -28 64.667 -42 102 -42c0 -66.667 -16.667 -100 -50 -100
c-66.667 0 -122 15.333 -166 46s-80.333 79.334 -109 146.001s-71 126.334 -127 179.001s-122 79 -198 79c-66.667 0 -116.667 -20.667 -150 -62c-33.333 -42 -50 -88 -50 -138s12.667 -87.333 38 -112c24.667 -25.333 62 -38 112 -38c0 -33.333 -8.33301 -58.333 -25 -75
s-41.667 -25 -75 -25c-66.667 0 -116.667 20.667 -150 62c-33.333 42 -50 104.667 -50 188z" />
    <glyph glyph-name="uni17D21791" unicode="&#x17d2;&#x1791;" horiz-adv-x="0" 
d="M-650 -164c0 14.667 -16.668 21.9971 -50.001 21.9971c0 30.667 8.33301 53.667 25 69s41.667 23 75 23s58.333 -7.66699 75 -23s25 -38.333 25 -69c0 -30 -18 -67.667 -54 -113s-94.333 -88.666 -175 -129.999c-80.667 -42 -147.667 -69.333 -201 -82
c32.667 -39.333 75.667 -59 129 -59c68 0 141 32.333 219 97c78 64 121.667 117 131 159c6.66699 26.667 17.334 46.334 32.001 59.001s32.667 19 54 19c43.333 0 65 -15.333 65 -46v-318c0 -30.667 -16.333 -53.667 -49 -69c-32 -16.667 -80.667 -25 -146 -25
c30 32 45 63.333 45 94v80c-67.333 -67.333 -127.666 -113 -180.999 -137c-54 -24.667 -110.667 -37 -170 -37c-82.667 0 -153.334 15.333 -212.001 46c-58 28.667 -87 72.334 -87 131.001c0 68.667 16.667 108 50 118c133.333 40 233.333 78.167 300 114.5
s100 61.833 100 76.5z" />
    <glyph glyph-name="uni17D21792" unicode="&#x17d2;&#x1792;" horiz-adv-x="0" 
d="M-472 -142c-11.333 -42.667 -36 -80.666 -74 -113.999c-42.667 -37.333 -88 -69.333 -136 -96l50 -24l69 -26c8 -2.66699 15.667 -4.33398 23 -5.00098h7c24 0 44.333 12.667 61 38c17.333 27.333 29.333 70 36 128c0.666992 7.33301 1 14.333 1 21
c0 36.667 -12.333 62.667 -37 78zM-965 -488.999c-0.666992 -3.33301 -1.00098 -6.66602 -1.00098 -9.99902c0 -16.667 6 -27.667 18 -33c14 -7.33301 37 -13 69 -17c8.66699 -1.33301 17.334 -2 26.001 -2c20 0 37.667 3.66699 53 11c21.333 10 34 32.333 38 67l7 72
c-31.333 -15.333 -64.333 -30 -99 -44c-34.667 -14.667 -71.667 -29.334 -111 -44.001zM-467.001 -99.999c16 24.667 36.6689 37.0039 62.002 37.0039h8c28.667 -3.33301 55.667 -21.333 81 -54c21.333 -26 32 -60.667 32 -104c0 -10.667 -1 -22.334 -3 -35.001
c-10.667 -94 -34.334 -162.333 -71.001 -205c-32 -37.333 -73.667 -56 -125 -56c-8 0 -16.333 0.333008 -25 1c-12.667 1.33301 -26.5 4.16602 -41.5 8.49902s-30.833 9.16602 -47.5 14.499l-66 20c-7.33301 -64.667 -28.333 -111.334 -63 -140.001
c-28.667 -23.333 -66.667 -35 -114 -35c-10.667 0 -22 0.333008 -34 1c-86 9.33301 -149 29.666 -189 60.999c-34.667 27.333 -52 63 -52 107c0 6.66699 0.333008 13.334 1 20.001c5.33301 47.333 25.333 77.666 60 90.999c113.333 22 209.666 52 288.999 90
c78.667 36.667 130.667 76.667 156 120c10.667 18.667 16 33.334 16 44.001c0 14.667 -9.33301 23 -28 25c3.33301 26 28 39 74 39c50 0 76.667 -16.667 80 -50z" />
    <glyph glyph-name="uni17D21793" unicode="&#x17d2;&#x1793;" horiz-adv-x="0" 
d="M-879 -540c-98.667 0 -172.67 15.998 -222.003 47.998s-74 79.667 -74 143c0 56 25 101.333 75 136c50 34 125 51 225 51h350v26c0 57.333 25 86 75 86s75 -28.667 75 -86v-26h150v-112h-150v-124c33.333 0 58.333 -9.66699 75 -29c16.667 -18.667 25 -54 25 -106
c0 -39.333 -10.333 -68.666 -31 -87.999c-21.333 -19.333 -52.666 -29 -93.999 -29s-72.666 12 -93.999 36c-20.667 22.667 -31 57.334 -31 104.001l-300 -28h-27c-5.33301 -0.666992 -10.166 -1.16699 -14.499 -1.5s-8.5 -0.5 -12.5 -0.5zM-1025 -349.002
c0 -20 11 -38.333 33 -55c21.333 -16.667 60.333 -25 117 -25c15.333 0 32 1 50 3l300 28v124h-350c-56.667 0 -95.667 -7.66699 -117 -23c-22 -16 -33 -33.333 -33 -52z" />
    <glyph glyph-name="uni17D21794" unicode="&#x17d2;&#x1794;" horiz-adv-x="700" 
d="M250 993c0 70.667 -66.6641 116.667 -199.997 138c13.333 67.333 48.666 145.666 105.999 234.999c56.667 89.333 103 134 139 134c29.333 0 67.666 -14.333 114.999 -43l70 -43c20.667 -12.667 45 -19 73 -19c14.667 0 30.334 1.66699 47.001 5
c-6.66699 -46.667 -22.334 -87.667 -47.001 -123c-25.333 -36 -54.333 -56 -87 -60c-4 -0.666992 -8.33301 -1 -13 -1c-32 0 -73.667 14 -125 42c-26.667 14 -49 21 -67 21c-22.667 0 -38.667 -10.667 -48 -32l-27 -59c176 -38.667 264 -84.667 264 -138v-1600
c0 -66.667 -33.333 -100 -100 -100s-120.667 21 -162 63l-188 187l-187 -187c-42 -42 -96.333 -63 -163 -63c-58.667 0 -88 33.333 -88 100v300c0 100 58 150 174 150c36 0 66 -6.66699 90 -20s36 -36.666 36 -69.999c0 -66.667 -37.333 -120 -112 -160v-158l180 179
c23.333 23.333 46.666 35 69.999 35c24 0 47.667 -11.667 71 -35l179 -179v1501z" />
    <glyph glyph-name="uni17D21795" unicode="&#x17d2;&#x1795;" horiz-adv-x="0" 
d="M-450 -254v58c-26.667 -14.667 -40 -28.667 -40 -42c0 -10.667 13.333 -16 40 -16zM-1100 -561l-0.000976562 461h150v-387l250 189l250 -189v156c-43.333 0 -77.666 7.66699 -102.999 23c-24.667 14.667 -37 37.667 -37 69c0 35.333 23.333 67.333 70 96s95 43 145 43
s75 -19.333 75 -58v-403c0 -58 -31.667 -87 -95 -87c-36.667 0 -75.667 16.333 -117 49l-188 148l-187 -148c-42 -32.667 -81.333 -49 -118 -49c-63.333 0 -95 29 -95 87z" />
    <glyph glyph-name="uni17D21796" unicode="&#x17d2;&#x1796;" horiz-adv-x="0" 
d="M-942 -475v-75c27.333 0 41 16.667 41 50c0 8 -3.66699 14.333 -11 19c-6.66699 4 -16.667 6 -30 6zM-942 -375c42 0 73.334 -10.334 94.001 -31.001c20.667 -21.333 31 -52.666 31 -93.999c0 -100 -41.667 -150 -125 -150c-105.333 0 -158 33.333 -158 100v200
c0 61.333 27.667 118.333 83 171c54.667 52.667 99.667 79 135 79c29.333 0 90.333 -34.667 183 -104c92.667 69.333 153.667 104 183 104c34.667 0 79.334 -26.333 134.001 -79s82 -109.667 82 -171v-300h-157v300c0 42.667 -14.333 81.667 -43 117
c-6.66699 8 -15.334 12 -26.001 12c-36 0 -93.667 -43.333 -173 -130c-80 86.667 -138 130 -174 130c-10.667 0 -19.334 -4 -26.001 -12c-28.667 -35.333 -43 -74.333 -43 -117v-25z" />
    <glyph glyph-name="uni17D21797" unicode="&#x17d2;&#x1797;" horiz-adv-x="0" 
d="M-1150 -491c0 -18 16.667 -33.333 50 -46v67c-33.333 0 -50 -7 -50 -21zM-950 -350v-225c0 -50 -25 -75 -75 -75s-100 15 -150 45s-75 68.333 -75 115c0 40 12.333 70 37 90c25.333 20 63 30 113 30v20c0 86.667 36.667 150 110 190s170 60 290 60s216.667 -20 290 -60
s110 -103.333 110 -190v-300h-150v300c0 53.333 -24.167 91.666 -72.5 114.999s-107.5 35 -177.5 35s-129.167 -11.667 -177.5 -35s-72.5 -61.666 -72.5 -114.999z" />
    <glyph glyph-name="uni17D21798" unicode="&#x17d2;&#x1798;" horiz-adv-x="0" 
d="M-999 -494c-66.667 0 -116.997 15.999 -150.997 47.999c-33.333 32.667 -50 81.334 -50 146.001c0 33.333 12.333 58.333 37 75c25.333 16.667 69.666 25 132.999 25v-80c0 -24 7.66699 -43.333 23 -58c14.667 -15.333 37 -23 67 -23h10c6 0 9.33301 0.333008 10 1
l370 40v220h150v-220c66.667 0 116.667 -17.5 150 -52.5s50 -77.5 50 -127.5s-14.667 -87.333 -44 -112c-28.667 -25.333 -72.334 -38 -131.001 -38s-102.334 16.667 -131.001 50c-29.333 33.333 -44 83.333 -44 150l-390 -40h-3c-10 -0.666992 -19.667 -1.5 -29 -2.5
s-18.333 -1.5 -27 -1.5zM-319.997 -500.001c0 33.333 -26.667 50 -80 50c0 -53.333 13 -80 39 -80h1c26.667 0 40 10 40 30z" />
    <glyph glyph-name="uni17D21799" unicode="&#x17d2;&#x1799;" horiz-adv-x="700" 
d="M450 -400c0 -166.667 -145.665 -249.999 -436.998 -249.999c-300.667 0 -451 83.333 -451 250v201c0 66 41.333 99 124 99c42.667 0 82.667 -18 120 -54c37.333 -36.667 56 -71.667 56 -105c0 -60 -37.333 -90 -112 -90v-51c0 -100 87.667 -150 263 -150
c158 0 237 50 237 150v1393c0 70.667 -66.667 116.667 -200 138c13.333 67.333 48.666 145.666 105.999 234.999c56.667 89.333 103 134 139 134c29.333 0 67.666 -14.333 114.999 -43l70 -43c20.667 -12.667 45 -19 73 -19c14.667 0 30.334 1.66699 47.001 5
c-6.66699 -46.667 -22.334 -87.667 -47.001 -123c-25.333 -36 -54.333 -56 -87 -60c-4 -0.666992 -8.33301 -1 -13 -1c-32 0 -73.667 14 -125 42c-26.667 14 -49 21 -67 21c-22.667 0 -38.667 -10.667 -48 -32l-27 -59c176 -38.667 264 -84.667 264 -138v-1450z" />
    <glyph glyph-name="uni17D2179A" unicode="&#x17d2;&#x179a;" horiz-adv-x="700" 
d="M450 -350c0 -100 83.335 -149.999 250.002 -149.999s250 50 250 150v250h200v-250c0 -166.667 -150 -250 -450 -250s-450 83.333 -450 250v1343c0 70.667 -66.667 116.667 -200 138c13.333 67.333 48.666 145.666 105.999 234.999c56.667 89.333 103 134 139 134
c29.333 0 67.666 -14.333 114.999 -43l70 -43c20.667 -12.667 45 -19 73 -19c14.667 0 30.334 1.66699 47.001 5c-6.66699 -46.667 -22.334 -87.667 -47.001 -123c-25.333 -36 -54.333 -56 -87 -60c-4 -0.666992 -8.33301 -1 -13 -1c-32 0 -73.667 14 -125 42
c-26.667 14 -49 21 -67 21c-22.667 0 -38.667 -10.667 -48 -32l-27 -59c176 -38.667 264 -84.667 264 -138v-1400z" />
    <glyph glyph-name="uni17D2179B" unicode="&#x17d2;&#x179b;" horiz-adv-x="0" 
d="M-1241 -436c0 102 24.998 183.665 74.998 244.998c50 60.667 125 91 225 91c80 0 147.333 -21.333 202 -64c54.667 -43.333 96.667 -108.333 126 -195c28 -66 55.5 -108.833 82.5 -128.5s53.5 -29.5 79.5 -29.5s52.5 31.5 79.5 94.5s47.833 132.5 62.5 208.5
c14 76 46.333 114 97 114c35.333 0 53 -21.667 53 -65c0 -19.333 -3.66699 -43.333 -11 -72c-23.333 -91.333 -60.333 -182.666 -111 -273.999c-51.333 -92 -105.333 -138 -162 -138c-73.333 0 -134.333 18 -183 54s-85 90 -109 162
c-25.333 80.667 -55.166 137.834 -89.499 171.501s-73.166 50.5 -116.499 50.5c-50 0 -87.5 -19.5 -112.5 -58.5s-37.5 -94.5 -37.5 -166.5c0 -61.333 16.667 -92 50 -92s50 20.333 50 61c33.333 0 58.333 -7.33301 75 -22c16.667 -15.333 25 -38.333 25 -69
s-12.667 -53.667 -38 -69c-24.667 -15.333 -62 -23 -112 -23c-66.667 0 -116.667 15.333 -150 46s-50 86.667 -50 168z" />
    <glyph glyph-name="uni17D2179C" unicode="&#x17d2;&#x179c;" horiz-adv-x="0" 
d="M-800 -650c-100 0 -175.001 17.001 -225.001 51.001c-50 33.333 -75 82.666 -75 147.999c0 82.667 30 124.334 90 125.001c60 0 137.5 19.667 232.5 59s204.167 111.666 327.5 216.999c100 0 150 -50 150 -150c0 -138 -46.333 -247.333 -139 -328
c-93.333 -81.333 -213.666 -122 -360.999 -122zM-510.001 -253.999c-70 -51.333 -141.666 -93.334 -214.999 -126.001s-145 -56.334 -215 -71.001c0 -23.333 12.667 -42.666 38 -57.999c24.667 -15.333 58.667 -23 102 -23c93.333 0 172.666 31.333 237.999 94
s102 138.334 110 227.001l-5 -3l-26 -20z" />
    <glyph glyph-name="uni17D2179F" unicode="&#x17d2;&#x179f;" horiz-adv-x="713" 
d="M450 -400c0 -166.667 -149.998 -249.999 -449.998 -249.999c-292 0 -438 83.333 -438 250v50c-74.667 0 -112 30 -112 90c0 33.333 18.667 68.333 56 105s77.333 55 120 55c82.667 0 124 -33.333 124 -100v-200c0 -100 83.333 -150 250 -150s250 50 250 150v400h-150v100
h150v893c0 70.667 -66.667 116.667 -200 138c13.333 67.333 48.666 145.666 105.999 234.999c56.667 89.333 103 134 139 134c29.333 0 67.666 -14.333 114.999 -43l70 -43c20.667 -12.667 45 -19 73 -19c14.667 0 30.334 1.66699 47.001 5
c-6.66699 -46.667 -22.334 -87.667 -47.001 -123c-25.333 -36 -54.333 -56 -87 -60c-4 -0.666992 -8.33301 -1 -13 -1c-32 0 -73.667 14 -125 42c-26.667 14 -49 21 -67 21c-22.667 0 -38.667 -10.667 -48 -32l-27 -59c176 -38.667 264 -84.667 264 -138v-950h150v-100h-150
v-400z" />
    <glyph glyph-name="uni17D217A0" unicode="&#x17d2;&#x17a0;" horiz-adv-x="0" 
d="M-975 -450c0 -33.333 8.33301 -58.333 25 -75s41.667 -25 75 -25s58.333 8.33301 75 25s25 41.667 25 75v150c0 66.667 20.667 116.667 62 150c42 33.333 104.667 50 188 50s146 -16.667 188 -50c41.333 -33.333 62 -83.333 62 -150v-350h-150v350
c0 33.333 -8.33301 58.333 -25 75s-41.667 25 -75 25s-58.333 -8.33301 -75 -25s-25 -41.667 -25 -75v-150c0 -66.667 -20.667 -116.667 -62 -150c-42 -33.333 -104.667 -50 -188 -50s-146 16.667 -188 50c-41.333 33.333 -62 83.333 -62 150v350h150v-350z" />
    <glyph glyph-name="uni17D217A2" unicode="&#x17d2;&#x17a2;" horiz-adv-x="0" 
d="M-1140 -525c0 50 26.667 75 80 75v220c0 20 -10 30 -30 30c-33.333 0 -50 16.667 -50 50s18.333 50 55 50c116.667 0 175 -43.333 175 -130v-60h500v60c0 20 -10 30 -30 30c-33.333 0 -50 16.667 -50 50s18.333 50 55 50c116.667 0 175 -43.333 175 -130v-320
c0 -66.667 -25 -100 -75 -100s-88.333 13.167 -115 39.5s-40 54.833 -40 85.5c0 50 26.667 75 80 75v60h-500v-160c0 -66.667 -25 -100 -75 -100s-88.333 13.167 -115 39.5s-40 54.833 -40 85.5z" />
    <glyph glyph-name="uni17B717CD" unicode="&#x17b7;&#x17cd;" horiz-adv-x="0" 
d="M-1000 1944h500c-64.667 51.333 -124 84.5 -178 99.5s-111.333 22.5 -172 22.5c-100 0 -150 -40.667 -150 -122zM-306 1948c37.333 -38 56 -70.667 56 -98c0 -33.333 -33.333 -50 -100 -50h-650c-96 0 -144 48 -144 144c0 170.667 98 256 294 256
c83.333 0 166 -17 248 -51c5.33301 37.333 19.333 71.333 42 102c30 39.333 88.333 59 175 59c84.667 0 143 -19.667 175 -59c50.667 16.667 97.667 39.667 141 69c42.667 28.667 78 67 106 115l11 2c12.667 0 26.667 -9.66699 42 -29c10 -13.333 15 -24.666 15 -34
c0 -9.33301 -4 -17.333 -12 -24c-30 -42 -65 -79.667 -105 -113c-40.667 -32.667 -86 -61.334 -136 -86.001c-24 -7.33301 -47.333 -11 -70 -11c-49.333 46.667 -95 70 -137 70c-30 0 -54 -9.33301 -72 -28c-18.667 -19.333 -28 -41.333 -28 -66
c0 -18.667 3.66699 -37 11 -55l28 -20c47.333 1.33301 71 7.33301 71 18c0 20.667 23.333 31 70 31s70 -10.333 70 -31c0 -39.333 -14.667 -69 -44 -89c-13.333 -9.33301 -32.333 -16.666 -57 -21.999z" />
    <glyph glyph-name=".notdef" horiz-adv-x="2048" 
 />
    <glyph glyph-name="space" unicode=" " horiz-adv-x="532" 
 />
    <glyph glyph-name="exclam" unicode="!" horiz-adv-x="551" 
d="M336 414h-121l-51 1048h223zM147 111c0 25.333 3.33301 46.833 10 64.5s15.667 32 27 43s24.666 19 39.999 24s32 7.5 50 7.5c17.333 0 33.833 -2.5 49.5 -7.5s29.167 -13 40.5 -24s20.333 -25.333 27 -43s10 -39.167 10 -64.5c0 -24.667 -3.33301 -45.834 -10 -63.501
s-15.667 -32.167 -27 -43.5s-24.833 -19.666 -40.5 -24.999s-32.167 -8 -49.5 -8c-18 0 -34.667 2.66699 -50 8s-28.666 13.666 -39.999 24.999s-20.333 25.833 -27 43.5s-10 38.834 -10 63.501z" />
    <glyph glyph-name="quotedbl" unicode="&#x22;" horiz-adv-x="823" 
d="M330 1462l-41 -528h-115l-41 528h197zM690 1462l-41 -528h-114l-41 528h196z" />
    <glyph glyph-name="numbersign" unicode="#" horiz-adv-x="1323" 
d="M983 893l-63 -328h280v-137h-307l-82 -428h-147l84 428h-291l-82 -428h-144l78 428h-258v137h285l65 328h-274v137h299l82 432h147l-82 -432h293l84 432h144l-84 -432h262v-137h-289zM483 565h291l64 328h-291z" />
    <glyph glyph-name="dollar" unicode="$" horiz-adv-x="1128" 
d="M985 446c0 -46.667 -8.33008 -89 -24.9971 -127s-40.5 -71 -71.5 -99s-68.667 -51.167 -113 -69.5s-94.5 -31.5 -150.5 -39.5v-230h-138v221c-33.333 0 -67 1.5 -101 4.5s-67 7.5 -99 13.5s-62 13.333 -90 22s-52.667 18.667 -74 30v172
c22 -10.667 47.5 -21.5 76.5 -32.5s59.5 -20.833 91.5 -29.5s64.833 -15.834 98.5 -21.501s66.167 -8.5 97.5 -8.5v434c-59.333 20 -110.833 41 -154.5 63s-79.834 47.167 -108.501 75.5s-50 60.833 -64 97.5s-21 79.667 -21 129c0 44.667 8.16699 85.5 24.5 122.5
s39.666 69.333 69.999 97s67 50.334 110 68.001s90.833 29.5 143.5 35.5v180h138v-176c66.667 -3.33301 128.167 -12 184.5 -26s106.833 -31.333 151.5 -52l-66 -145c-37.333 16.667 -79.333 31.834 -126 45.501s-94.667 22.5 -144 26.5v-422
c58.667 -20.667 110.5 -42 155.5 -64s82.667 -46.833 113 -74.5s53.166 -59.334 68.499 -95.001s23 -77.5 23 -125.5zM809.003 446c0 22 -3.33398 42.167 -10.001 60.5s-17.167 35 -31.5 50s-33.166 28.833 -56.499 41.5s-52 25 -86 37v-373
c62 9.33301 108.167 30.333 138.5 63s45.5 73 45.5 121zM315.002 1049c0 -24 2.83301 -45.498 8.5 -64.498s15.167 -36.333 28.5 -52s31 -29.834 53 -42.501s49.333 -24.667 82 -36v369c-59.333 -10.667 -102.833 -30.834 -130.5 -60.501s-41.5 -67.5 -41.5 -113.5z" />
    <glyph glyph-name="percent" unicode="%" horiz-adv-x="1690" 
d="M250 1026c0 -110 11.833 -192.5 35.5 -247.5s62.167 -82.5 115.5 -82.5c104 0 156 110 156 330c0 218.667 -52 328 -156 328c-53.333 0 -91.833 -27.167 -115.5 -81.5s-35.5 -136.5 -35.5 -246.5zM705 1026c0 -72 -6.00195 -136.667 -18.002 -194
s-30.333 -105.666 -55 -144.999s-56.167 -69.5 -94.5 -90.5s-83.833 -31.5 -136.5 -31.5c-48.667 0 -91.667 10.5 -129 31.5s-68.666 51.167 -93.999 90.5s-44.333 87.666 -57 144.999s-19 122 -19 194s5.83301 136.333 17.5 193s29.667 104.5 54 143.5
s55.333 68.833 93 89.5s82.5 31 134.5 31c50 0 93.833 -10.333 131.5 -31s69.334 -50.5 95.001 -89.5s45 -86.833 58 -143.5s19.5 -121 19.5 -193zM1133 440c0 -110 11.833 -192.333 35.5 -247s62.167 -82 115.5 -82c104 0 156 109.667 156 329c0 218.667 -52 328 -156 328
c-53.333 0 -91.833 -27.167 -115.5 -81.5s-35.5 -136.5 -35.5 -246.5zM1587 440c0 -72 -5.83301 -136.5 -17.5 -193.5s-29.834 -105.167 -54.501 -144.5s-56.167 -69.5 -94.5 -90.5s-83.833 -31.5 -136.5 -31.5c-49.333 0 -92.666 10.5 -129.999 31.5
s-68.5 51.167 -93.5 90.5s-43.833 87.5 -56.5 144.5s-19 121.5 -19 193.5s5.83301 136.333 17.5 193s29.667 104.5 54 143.5s55.333 68.833 93 89.5s82.5 31 134.5 31c50 0 93.833 -10.333 131.5 -31s69.167 -50.5 94.5 -89.5s44.5 -86.833 57.5 -143.5s19.5 -121 19.5 -193
zM1331 1462l-811 -1462h-158l812 1462h157z" />
    <glyph glyph-name="ampersand" unicode="&#x26;" horiz-adv-x="1438" 
d="M422 1165c0 -22.667 2.66504 -44.8301 7.99805 -66.4971s13.5 -43.334 24.5 -65.001s25.167 -43.667 42.5 -66s38 -45.833 62 -70.5c39.333 23.333 73.333 45.333 102 66s52.334 41.667 71.001 63s32.667 43.666 42 66.999s14 48.666 14 75.999
c0 24 -4.16699 46.167 -12.5 66.5s-20.333 37.833 -36 52.5s-34.5 26.167 -56.5 34.5s-47 12.5 -75 12.5c-57.333 0 -102.666 -14.833 -135.999 -44.5s-50 -71.5 -50 -125.5zM556.998 141.004c38.667 0 74.333 3.83203 107 11.499s63 18.167 91 31.5s54 29 78 47
s46.667 37.333 68 58l-387 407c-34.667 -22 -65.334 -43.5 -92.001 -64.5s-49.167 -43.5 -67.5 -67.5s-32.166 -50.167 -41.499 -78.5s-14 -61.166 -14 -98.499c0 -36 5.83301 -69.167 17.5 -99.5s28.5 -56.333 50.5 -78s49 -38.5 81 -50.5s68.333 -18 109 -18z
M108.997 381.003c0 52 6.66895 98.332 20.002 138.999s32.833 77.667 58.5 111s57 64.333 94 93s79.167 57 126.5 85c-20.667 24 -41 48.833 -61 74.5s-37.5 53 -52.5 82s-27.167 60 -36.5 93s-14 68.5 -14 106.5c0 50 8.33301 94.833 25 134.5s40.667 73.334 72 101.001
s70 48.667 116 63s98.333 21.5 157 21.5c55.333 0 104.833 -7.16699 148.5 -21.5s80.667 -35.333 111 -63s53.5 -61.334 69.5 -101.001s24 -84.5 24 -134.5c0 -42.667 -8.33301 -82.167 -25 -118.5s-39 -70 -67 -101s-60.167 -59.667 -96.5 -86s-74.5 -51.5 -114.5 -75.5
l352 -372c18 19.333 34.167 39 48.5 59s27.166 41.333 38.499 64s21.5 47 30.5 73s16.833 54.667 23.5 86h184c-10 -44 -21.833 -84.5 -35.5 -121.5s-29.334 -71.833 -47.001 -104.5s-37.334 -63.167 -59.001 -91.5s-45.5 -56.166 -71.5 -83.499l277 -293h-225l-168 172
c-32.667 -30 -65 -56.833 -97 -80.5s-66 -43.667 -102 -60s-74.667 -29 -116 -38s-88 -13.5 -140 -13.5c-70 0 -132.833 8.83301 -188.5 26.5s-102.667 43.667 -141 78s-67.666 76.333 -87.999 126s-30.5 106.5 -30.5 170.5z" />
    <glyph glyph-name="quotesingle" unicode="'" horiz-adv-x="463" 
d="M330 1462l-41 -528h-115l-41 528h197z" />
    <glyph glyph-name="parenleft" unicode="(" horiz-adv-x="616" 
d="M82 561c0 83.333 5.99902 165.502 17.999 246.502s30.333 159.667 55 236s55.834 149.666 93.501 219.999s82.5 136.5 134.5 198.5h172c-93.333 -128.667 -164.166 -270 -212.499 -424s-72.5 -312.333 -72.5 -475c0 -79.333 6.16699 -158.333 18.5 -237
s30.333 -155.667 54 -231s53.167 -148.333 88.5 -219s76 -137.334 122 -200.001h-170c-52 60 -96.833 124.333 -134.5 193s-68.834 140.5 -93.501 215.5s-43 152.5 -55 232.5s-18 161.333 -18 244z" />
    <glyph glyph-name="parenright" unicode=")" horiz-adv-x="616" 
d="M535 561c0 -82.667 -6 -164.002 -18 -244.002s-30.5 -157.5 -55.5 -232.5s-56.333 -146.833 -94 -215.5s-82.5 -133 -134.5 -193h-170c46 62.667 86.667 129.334 122 200.001s65 143.667 89 219s42 152.333 54 231s18 157.667 18 237c0 162.667 -24 321 -72 475
s-119 295.333 -213 424h172c52 -62 96.833 -128.167 134.5 -198.5s69 -143.666 94 -219.999s43.5 -155 55.5 -236s18 -163.167 18 -246.5z" />
    <glyph glyph-name="asterisk" unicode="*" horiz-adv-x="1128" 
d="M664 1556l-43 -393l397 111l26 -193l-378 -28l245 -326l-178 -96l-176 358l-158 -358l-184 96l242 326l-375 28l29 193l391 -111l-43 393h205z" />
    <glyph glyph-name="plus" unicode="+" horiz-adv-x="1128" 
d="M489 647h-387v150h387v389h150v-389h387v-150h-387v-385h-150v385z" />
    <glyph glyph-name="comma" unicode="," horiz-adv-x="512" 
d="M362 238l15.001 -23.001c-9.33301 -36 -20.5 -74.333 -33.5 -115s-27.333 -81.667 -43 -123l-49 -123.5l-50.5 -117.5h-138c10 40.667 19.833 83 29.5 127l28 131.5c9 43.667 17.167 86.334 24.5 128.001s13.666 80.167 18.999 115.5h198z" />
    <glyph glyph-name="hyphen" unicode="-" horiz-adv-x="659" 
d="M82 465v168h496v-168h-496z" />
    <glyph glyph-name="period" unicode="." horiz-adv-x="549" 
d="M147 111c0 25.333 3.33301 46.833 10 64.5s15.667 32 27 43s24.666 19 39.999 24s32 7.5 50 7.5c17.333 0 33.833 -2.5 49.5 -7.5s29.167 -13 40.5 -24s20.333 -25.333 27 -43s10 -39.167 10 -64.5c0 -24.667 -3.33301 -45.834 -10 -63.501s-15.667 -32.167 -27 -43.5
s-24.833 -19.666 -40.5 -24.999s-32.167 -8 -49.5 -8c-18 0 -34.667 2.66699 -50 8s-28.666 13.666 -39.999 24.999s-20.333 25.833 -27 43.5s-10 38.834 -10 63.501z" />
    <glyph glyph-name="slash" unicode="/" horiz-adv-x="764" 
d="M743 1462l-544 -1462h-179l545 1462h178z" />
    <glyph glyph-name="zero" unicode="0" horiz-adv-x="1128" 
d="M1032 733c0 -118 -8.50195 -223.667 -25.502 -317s-44.333 -172.333 -82 -237s-86.167 -114 -145.5 -148s-131.333 -51 -216 -51c-78.667 0 -147.167 17 -205.5 51s-106.666 83.333 -144.999 148s-67 143.667 -86 237s-28.5 199 -28.5 317s8.5 223.667 25.5 317
s44 172.166 81 236.499s85 113.5 144 147.5s130.5 51 214.5 51c79.333 0 148.333 -16.833 207 -50.5s107.334 -82.667 146.001 -147s67.667 -143.166 87 -236.499s29 -199.333 29 -318zM282.998 733c0 -100 5 -187.332 15 -261.999s26 -136.834 48 -186.501
s50.833 -87 86.5 -112s79.167 -37.5 130.5 -37.5s95 12.333 131 37s65.5 61.667 88.5 111s39.667 111.5 50 186.5s15.5 162.833 15.5 263.5c0 100 -5.16699 187.333 -15.5 262s-27 136.667 -50 186s-52.5 86.333 -88.5 111s-79.667 37 -131 37s-94.833 -12.333 -130.5 -37
s-64.5 -61.667 -86.5 -111s-38 -111.333 -48 -186s-15 -162 -15 -262z" />
    <glyph glyph-name="one" unicode="1" horiz-adv-x="1128" 
d="M711 0l-176 -0.00195312v913c0 28.667 0.166992 59.334 0.5 92.001s1 65.167 2 97.5l3 93c1 29.667 1.83301 55.834 2.5 78.501l-30 -31c-8.66699 -8.66699 -17.5 -17 -26.5 -25l-28.5 -25.5l-36 -31.5l-148 -121l-96 123l383 299h150v-1462z" />
    <glyph glyph-name="two" unicode="2" horiz-adv-x="1128" 
d="M1008 0l-912 -0.000976562v156l350 381l134 148c39.333 44.667 72.833 88.334 100.5 131.001s48.834 85.5 63.501 128.5s22 89.833 22 140.5c0 39.333 -5.66699 74 -17 104s-27.5 55.5 -48.5 76.5s-45.833 36.833 -74.5 47.5s-60.667 16 -96 16
c-63.333 0 -120.5 -12.833 -171.5 -38.5s-99.5 -58.5 -145.5 -98.5l-102 119c26.667 24 55.334 46.5 86.001 67.5s63.667 39.167 99 54.5s72.666 27.5 111.999 36.5s80.666 13.5 123.999 13.5c64 0 121.833 -9 173.5 -27s95.5 -43.833 131.5 -77.5s63.833 -74.667 83.5 -123
s29.5 -102.833 29.5 -163.5c0 -56.667 -8.83301 -110.667 -26.5 -162s-42 -101.833 -73 -151.5s-68 -99.5 -111 -149.5l-139.5 -156l-281 -299v-8h689v-166z" />
    <glyph glyph-name="three" unicode="3" horiz-adv-x="1128" 
d="M961 1120c0 -48.667 -7.66992 -92.999 -23.0029 -132.999s-36.833 -74.667 -64.5 -104s-60.834 -53.5 -99.501 -72.5s-81.667 -32.5 -129 -40.5v-6c118 -14.667 207.667 -52.167 269 -112.5s92 -138.833 92 -235.5c0 -64 -10.833 -122.667 -32.5 -176
s-54.5 -99.333 -98.5 -138s-99.667 -68.667 -167 -90s-147 -32 -239 -32c-72.667 0 -141.167 5.66699 -205.5 17s-124.833 32 -181.5 62v170c58 -30.667 120.833 -54.334 188.5 -71.001s132.5 -25 194.5 -25c61.333 0 114.333 6.66699 159 20s81.5 32.333 110.5 57
s50.333 55 64 91s20.5 76.333 20.5 121c0 45.333 -8.83301 84.166 -26.5 116.499s-42.834 59 -75.501 80s-72.5 36.5 -119.5 46.5s-100.167 15 -159.5 15h-133v151h133c54 0 102 6.66699 144 20s77.167 32.333 105.5 57s49.833 54 64.5 88s22 71.333 22 112
c0 34.667 -6 65.667 -18 93s-29 50.5 -51 69.5s-48.333 33.5 -79 43.5s-64.667 15 -102 15c-71.333 0 -134.166 -11.167 -188.499 -33.5s-106.166 -51.5 -155.499 -87.5l-92 125c25.333 20.667 53.5 40 84.5 58s64.833 33.833 101.5 47.5s75.834 24.5 117.501 32.5
s85.834 12 132.501 12c72 0 135.167 -9 189.5 -27s99.833 -43.167 136.5 -75.5s64.334 -70.666 83.001 -114.999s28 -92.833 28 -145.5z" />
    <glyph glyph-name="four" unicode="4" horiz-adv-x="1128" 
d="M1087 328h-213v-328h-176v328h-675v159l663 983h188v-976h213v-166zM698 494l-0.000976562 355.997c0 37.333 0.5 76.5 1.5 117.5s2.16699 81 3.5 120s2.83301 75.5 4.5 109.5s2.83398 62.333 3.50098 85h-9c-4.66699 -13.333 -10.5 -28.166 -17.5 -44.499
s-14.667 -32.666 -23 -48.999s-16.833 -32.166 -25.5 -47.499s-16.667 -28.333 -24 -39l-411 -608h497z" />
    <glyph glyph-name="five" unicode="5" horiz-adv-x="1128" 
d="M545 897c66 0 127.5 -9.16406 184.5 -27.4971s106.667 -45.5 149 -81.5s75.5 -80.667 99.5 -134s36 -115 36 -185c0 -76 -11.333 -144.333 -34 -205s-56.334 -112 -101.001 -154s-99.834 -74.167 -165.501 -96.5s-141.167 -33.5 -226.5 -33.5
c-34 0 -67.5 1.66699 -100.5 5s-64.667 8.16602 -95 14.499s-59.166 14.5 -86.499 24.5s-52 21.667 -74 35v172c22 -15.333 47.833 -29 77.5 -41s60.834 -22 93.501 -30s65.5 -14.167 98.5 -18.5s63.5 -6.5 91.5 -6.5c52.667 0 99.667 6.16699 141 18.5
s76.333 31.5 105 57.5s50.667 58.667 66 98s23 86 23 140c0 95.333 -29.333 168.166 -88 218.499s-144 75.5 -256 75.5c-18 0 -37.5 -0.833008 -58.5 -2.5s-42 -3.83398 -63 -6.50098s-41 -5.5 -60 -8.5s-35.5 -5.83301 -49.5 -8.5l-90 57l55 688h690v-166h-532l-39 -419
c21.333 4 49.5 8.33301 84.5 13s76.5 7 124.5 7z" />
    <glyph glyph-name="six" unicode="6" horiz-adv-x="1128" 
d="M113 625c0 70 3.50195 139.665 10.502 208.998s19.333 135.833 37 199.5s41.834 122.834 72.501 177.501s69.667 102.167 117 142.5s104 72 170 95s143.333 34.5 232 34.5c12.667 0 26.667 -0.333008 42 -1s30.833 -1.83398 46.5 -3.50098s30.667 -3.66699 45 -6
s27.166 -5.16602 38.499 -8.49902v-155c-23.333 8 -49.666 14 -78.999 18s-58.333 6 -87 6c-60 0 -112.833 -7.16699 -158.5 -21.5s-85.167 -34.5 -118.5 -60.5s-61.166 -57 -83.499 -93s-40.5 -75.833 -54.5 -119.5s-24.333 -90.167 -31 -139.5s-11 -100.666 -13 -153.999
h12c13.333 24 29.5 46.5 48.5 67.5s41.167 39 66.5 54s53.833 26.833 85.5 35.5s67.167 13 106.5 13c63.333 0 120.666 -9.83301 171.999 -29.5s95 -48.5 131 -86.5s63.833 -84.5 83.5 -139.5s29.5 -117.833 29.5 -188.5c0 -76 -10.333 -144.333 -31 -205
s-50.334 -112.167 -89.001 -154.5s-85.334 -74.833 -140.001 -97.5s-116 -34 -184 -34c-66.667 0 -129.167 13 -187.5 39s-108.833 65.667 -151.5 119s-76.334 120.333 -101.001 201s-37 176 -37 286zM588.002 132.998c40 0 76.5 6.83008 109.5 20.4971
s61.5 34.334 85.5 62.001s42.5 62.667 55.5 105s19.5 92.5 19.5 150.5c0 46.667 -5.5 88.5 -16.5 125.5s-27.5 68.5 -49.5 94.5s-49.5 46 -82.5 60s-71.5 21 -115.5 21c-44.667 0 -85.5 -7.83301 -122.5 -23.5s-68.5 -36 -94.5 -61s-46.167 -53.5 -60.5 -85.5
s-21.5 -64 -21.5 -96c0 -44.667 6.16699 -89.167 18.5 -133.5s30.666 -84.166 54.999 -119.499s54.833 -64.166 91.5 -86.499s79.334 -33.5 128.001 -33.5z" />
    <glyph glyph-name="seven" unicode="7" horiz-adv-x="1128" 
d="M281 0l563 1296h-754v166h940v-145l-555 -1317h-194z" />
    <glyph glyph-name="eight" unicode="8" horiz-adv-x="1128" 
d="M565 1485c56 0 108.829 -7.33301 158.496 -22s93.334 -36.667 131.001 -66s67.5 -66 89.5 -110s33 -95.333 33 -154c0 -44.667 -6.66699 -85 -20 -121s-31.666 -68.5 -54.999 -97.5s-51 -55 -83 -78s-66.667 -43.833 -104 -62.5c38.667 -20.667 76.5 -43.667 113.5 -69
s70 -53.833 99 -85.5s52.333 -67.167 70 -106.5s26.5 -83.333 26.5 -132c0 -61.333 -11.167 -116.833 -33.5 -166.5s-53.666 -91.834 -93.999 -126.501s-88.666 -61.334 -144.999 -80.001s-118.5 -28 -186.5 -28c-73.333 0 -138.5 9 -195.5 27s-105 43.833 -144 77.5
s-68.667 74.834 -89 123.501s-30.5 103.667 -30.5 165c0 50 7.5 95 22.5 135s35.167 76 60.5 108s55.333 60.333 90 85s71.334 46.334 110.001 65.001c-32.667 20.667 -63.334 43.167 -92.001 67.5s-53.5 51.5 -74.5 81.5s-37.667 63.167 -50 99.5s-18.5 76.5 -18.5 120.5
c0 58 11.167 108.833 33.5 152.5s52.5 80.167 90.5 109.5s81.833 51.333 131.5 66s101.5 22 155.5 22zM284.996 371c0 -35.333 5.33008 -67.835 15.9971 -97.502s27.334 -55 50.001 -76s51.334 -37.333 86.001 -49s76 -17.5 124 -17.5c46.667 0 87.834 5.83301 123.501 17.5
s65.5 28.334 89.5 50.001s42 47.834 54 78.501s18 64.667 18 102c0 34.667 -6.5 66 -19.5 94s-31.667 54 -56 78s-53.5 46.667 -87.5 68s-72 42.333 -114 63l-30 14c-84 -40 -147.333 -85.833 -190 -137.5s-64 -114.167 -64 -187.5zM562.993 1333
c-70.667 0 -126.834 -17.668 -168.501 -53.001s-62.5 -86.666 -62.5 -153.999c0 -38 5.83301 -70.667 17.5 -98s27.834 -51.666 48.501 -72.999s45.5 -40.5 74.5 -57.5s60.5 -33.5 94.5 -49.5c32 14.667 62.167 30.667 90.5 48s53 37 74 59s37.5 47 49.5 75s18 60 18 96
c0 67.333 -21 118.666 -63 153.999s-99.667 53 -173 53z" />
    <glyph glyph-name="nine" unicode="9" horiz-adv-x="1128" 
d="M1028 838c0 -70 -3.5 -139.833 -10.5 -209.5s-19.333 -136.167 -37 -199.5s-41.834 -122.5 -72.501 -177.5s-69.667 -102.5 -117 -142.5s-104 -71.5 -170 -94.5s-143.333 -34.5 -232 -34.5c-12.667 0 -26.667 0.333008 -42 1s-30.666 1.83398 -45.999 3.50098
s-30.333 3.5 -45 5.5s-27.667 4.66699 -39 8v156c23.333 -8.66699 49.666 -15 78.999 -19s58.333 -6 87 -6c90 0 164 15.667 222 47s104 73.833 138 127.5s58.167 116.167 72.5 187.5s23.166 146.666 26.499 225.999h-13c-13.333 -24 -29.333 -46.333 -48 -67
s-40.667 -38.667 -66 -54s-54 -27.333 -86 -36s-67.667 -13 -107 -13c-63.333 0 -120.666 9.83301 -171.999 29.5s-95 48.5 -131 86.5s-63.833 84.5 -83.5 139.5s-29.5 117.833 -29.5 188.5c0 76 10.5 144.5 31.5 205.5s50.667 112.667 89 155s85 74.833 140 97.5
s116.5 34 184.5 34c67.333 0 130 -13 188 -39s108.333 -65.667 151 -119s76.334 -120.5 101.001 -201.5s37 -176.167 37 -285.5zM553 1329c-40 0 -76.5 -6.66699 -109.5 -20s-61.5 -34 -85.5 -62s-42.5 -63.167 -55.5 -105.5s-19.5 -92.5 -19.5 -150.5
c0 -46.667 5.5 -88.5 16.5 -125.5s27.5 -68.5 49.5 -94.5s49.5 -46 82.5 -60s71.5 -21 115.5 -21c45.333 0 86.333 7.83301 123 23.5s68 36 94 61s46.167 53.5 60.5 85.5s21.5 64 21.5 96c0 44.667 -6.16699 89.167 -18.5 133.5s-30.666 84.333 -54.999 120
s-54.833 64.5 -91.5 86.5s-79.334 33 -128.001 33z" />
    <glyph glyph-name="colon" unicode=":" horiz-adv-x="549" 
d="M147 111c0 25.333 3.33301 46.833 10 64.5s15.667 32 27 43s24.666 19 39.999 24s32 7.5 50 7.5c17.333 0 33.833 -2.5 49.5 -7.5s29.167 -13 40.5 -24s20.333 -25.333 27 -43s10 -39.167 10 -64.5c0 -24.667 -3.33301 -45.834 -10 -63.501s-15.667 -32.167 -27 -43.5
s-24.833 -19.666 -40.5 -24.999s-32.167 -8 -49.5 -8c-18 0 -34.667 2.66699 -50 8s-28.666 13.666 -39.999 24.999s-20.333 25.833 -27 43.5s-10 38.834 -10 63.501zM147 987c0 26 3.33301 47.833 10 65.5s15.667 32 27 43s24.666 18.833 39.999 23.5s32 7 50 7
c17.333 0 33.833 -2.33301 49.5 -7s29.167 -12.5 40.5 -23.5s20.333 -25.333 27 -43s10 -39.5 10 -65.5c0 -24.667 -3.33301 -45.667 -10 -63s-15.667 -31.666 -27 -42.999s-24.833 -19.666 -40.5 -24.999s-32.167 -8 -49.5 -8c-18 0 -34.667 2.66699 -50 8
s-28.666 13.666 -39.999 24.999s-20.333 25.666 -27 42.999s-10 38.333 -10 63z" />
    <glyph glyph-name="semicolon" unicode=";" horiz-adv-x="549" 
d="M362 238l15.001 -23.001c-9.33301 -36 -20.5 -74.333 -33.5 -115s-27.333 -81.667 -43 -123l-49 -123.5l-50.5 -117.5h-138c10 40.667 19.833 83 29.5 127l28 131.5c9 43.667 17.167 86.334 24.5 128.001s13.666 80.167 18.999 115.5h198zM147.001 986.999
c0 26 3.33301 47.833 10 65.5s15.667 32 27 43s24.666 18.833 39.999 23.5s32 7 50 7c17.333 0 33.833 -2.33301 49.5 -7s29.167 -12.5 40.5 -23.5s20.333 -25.333 27 -43s10 -39.5 10 -65.5c0 -24.667 -3.33301 -45.667 -10 -63s-15.667 -31.666 -27 -42.999
s-24.833 -19.666 -40.5 -24.999s-32.167 -8 -49.5 -8c-18 0 -34.667 2.66699 -50 8s-28.666 13.666 -39.999 24.999s-20.333 25.666 -27 42.999s-10 38.333 -10 63z" />
    <glyph glyph-name="less" unicode="&#x3c;" horiz-adv-x="1128" 
d="M1026 238l-924 424v102l924 481v-160l-735 -364l735 -322v-161z" />
    <glyph glyph-name="equal" unicode="=" horiz-adv-x="1128" 
d="M102 852v149h924v-149h-924zM102 442v150h924v-150h-924z" />
    <glyph glyph-name="greater" unicode="&#x3e;" horiz-adv-x="1128" 
d="M102 399l736 322l-736 364v160l924 -481v-102l-924 -424v161z" />
    <glyph glyph-name="question" unicode="?" horiz-adv-x="872" 
d="M281 414l-0.00292969 37c0 38 2.5 72.333 7.5 103s14 59.334 27 86.001s30.5 52.834 52.5 78.501s49.667 52.5 83 80.5c32 27.333 59.333 52.166 82 74.499s41.167 45 55.5 68s25 47.667 32 74s10.5 57.166 10.5 92.499c0 32 -5 61.167 -15 87.5s-24.5 49 -43.5 68
s-42.667 33.667 -71 44s-61.166 15.5 -98.499 15.5c-55.333 0 -108 -8.66699 -158 -26s-98.333 -37.333 -145 -60l-63 145c54 28 112.333 51.833 175 71.5s126.334 29.5 191.001 29.5c62 0 117.833 -8.5 167.5 -25.5s91.834 -41.5 126.501 -73.5
s61.334 -71.167 80.001 -117.5s28 -98.5 28 -156.5c0 -44.667 -4.5 -84.5 -13.5 -119.5s-22.5 -67.5 -40.5 -97.5s-40.333 -59 -67 -87s-58 -57.667 -94 -89c-34.667 -30 -63 -56.167 -85 -78.5s-39.333 -44 -52 -65s-21.334 -42.5 -26.001 -64.5s-7 -47.667 -7 -77v-18
h-139zM232.997 111c0 25.333 3.33301 46.833 10 64.5s15.667 32 27 43s24.666 19 39.999 24s32 7.5 50 7.5c17.333 0 33.833 -2.5 49.5 -7.5s29.167 -13 40.5 -24s20.333 -25.333 27 -43s10 -39.167 10 -64.5c0 -24.667 -3.33301 -45.834 -10 -63.501
s-15.667 -32.167 -27 -43.5s-24.833 -19.666 -40.5 -24.999s-32.167 -8 -49.5 -8c-18 0 -34.667 2.66699 -50 8s-28.666 13.666 -39.999 24.999s-20.333 25.833 -27 43.5s-10 38.834 -10 63.501z" />
    <glyph glyph-name="at" unicode="@" horiz-adv-x="1774" 
d="M1665 731c0 -41.333 -3.16797 -82.834 -9.50098 -124.501s-15.666 -81.334 -27.999 -119.001s-28 -72.667 -47 -105s-41.167 -60.5 -66.5 -84.5s-54.166 -42.833 -86.499 -56.5s-67.833 -20.5 -106.5 -20.5c-30 0 -57.167 5 -81.5 15s-45.166 23.333 -62.499 40
s-31.5 35.834 -42.5 57.501s-18.5 44.167 -22.5 67.5h-4c-12 -24.667 -27 -48 -45 -70s-38.833 -41.167 -62.5 -57.5s-50.334 -29.166 -80.001 -38.499s-62.167 -14 -97.5 -14c-51.333 0 -96.833 9.33301 -136.5 28s-73.167 44.834 -100.5 78.501
s-48.166 74.167 -62.499 121.5s-21.5 99.666 -21.5 156.999c0 67.333 9.83301 129 29.5 185s48 104.333 85 145s81.833 72.334 134.5 95.001s111.667 34 177 34c30 0 60 -1.33301 90 -4s58.667 -6.33398 86 -11.001s52.5 -9.83398 75.5 -15.501s42.167 -11.167 57.5 -16.5
l-23 -416c-0.666992 -14.667 -1.16699 -26.5 -1.5 -35.5s-0.5 -16.167 -0.5 -21.5v-19c0 -35.333 3.5 -64.333 10.5 -87s16.167 -40.667 27.5 -54s24.166 -22.5 38.499 -27.5s29.166 -7.5 44.499 -7.5c30.667 0 57.667 10.167 81 30.5s42.833 47.833 58.5 82.5
s27.5 75.334 35.5 122.001s12 96 12 148c0 94.667 -14.333 178.834 -43 252.501s-68.334 135.834 -119.001 186.501s-110.834 89.167 -180.501 115.5s-145.5 39.5 -227.5 39.5c-112.667 0 -212 -18.5 -298 -55.5s-158.167 -88.667 -216.5 -155s-102.5 -145 -132.5 -236
s-45 -190.5 -45 -298.5c0 -100.667 13.167 -190 39.5 -268s65 -143.667 116 -197s114.333 -93.666 190 -120.999s162.5 -41 260.5 -41c40.667 0 80.834 2.33301 120.501 7s78 11 115 19s72.167 17.167 105.5 27.5s64.333 21.166 93 32.499v-141
c-57.333 -25.333 -122 -45.333 -194 -60s-151.333 -22 -238 -22c-119.333 0 -225.833 17 -319.5 51s-173 83.5 -238 148.5s-114.5 144.333 -148.5 238s-51 200.167 -51 319.5c0 125.333 19.667 242.166 59 350.499s95.5 202.166 168.5 281.499s161.333 141.666 265 186.999
s219.834 68 348.501 68c104 0 199.667 -16.833 287 -50.5s162.833 -82 226.5 -145s113.167 -139.667 148.5 -230s53 -192.166 53 -305.499zM661.999 601.999c0 -88.667 16.8311 -152.833 50.498 -192.5s78.834 -59.5 135.501 -59.5c36.667 0 68 7.5 94 22.5
s47.333 36.333 64 64s29.334 60.667 38.001 99s14.334 80.5 17.001 126.5l14 253c-18.667 5.33301 -40.834 10.166 -66.501 14.499s-52.5 6.5 -80.5 6.5c-49.333 0 -90.833 -9.66699 -124.5 -29s-61 -44.666 -82 -75.999s-36.167 -67 -45.5 -107s-14 -80.667 -14 -122z" />
    <glyph glyph-name="braceleft" unicode="{" horiz-adv-x="725" 
d="M500 -16c0 -32 4 -58.1699 12 -78.5029s19.5 -36.333 34.5 -48s33.333 -19.667 55 -24s45.834 -6.83301 72.501 -7.5v-150c-51.333 0.666992 -98.833 6.5 -142.5 17.5s-81.334 28.333 -113.001 52s-56.5 53.834 -74.5 90.501s-27 81 -27 133v334
c0 68.667 -21.833 117.334 -65.5 146.001s-107.167 43 -190.5 43v155c83.333 0 146.833 14.333 190.5 43s65.5 77.334 65.5 146.001v333c0 52 9 96.333 27 133s42.833 66.834 74.5 90.501s69.334 41 113.001 52s91.167 16.833 142.5 17.5v-149
c-26.667 -0.666992 -50.834 -3.16699 -72.501 -7.5s-40 -12.333 -55 -24s-26.5 -27.667 -34.5 -48s-12 -46.5 -12 -78.5v-332c0 -70 -19.833 -125.5 -59.5 -166.5s-97.834 -68.167 -174.501 -81.5v-12c76.667 -13.333 134.834 -40.333 174.501 -81
s59.5 -96.334 59.5 -167.001v-331z" />
    <glyph glyph-name="bar" unicode="|" horiz-adv-x="1128" 
d="M489 1556h150v-2048h-150v2048z" />
    <glyph glyph-name="braceright" unicode="}" horiz-adv-x="725" 
d="M225 315c0 70.667 19.833 126.336 59.5 167.003s97.834 67.667 174.501 81v12c-76.667 13.333 -134.834 40.5 -174.501 81.5s-59.5 96.5 -59.5 166.5v332c0 32 -4 58.167 -12 78.5s-19.5 36.333 -34.5 48s-33.333 19.667 -55 24s-45.834 6.83301 -72.501 7.5v149
c51.333 -0.666992 98.833 -6.5 142.5 -17.5s81.334 -28.333 113.001 -52s56.5 -53.834 74.5 -90.501s27 -81 27 -133v-333c0 -34.667 5.5 -64 16.5 -88s27.333 -43.5 49 -58.5s48.5 -25.833 80.5 -32.5s68.667 -10 110 -10v-155c-83.333 0 -146.833 -14.333 -190.5 -43
s-65.5 -77.334 -65.5 -146.001v-334c0 -52 -9 -96.333 -27 -133s-42.833 -66.834 -74.5 -90.501s-69.334 -41 -113.001 -52s-91.167 -16.833 -142.5 -17.5v150c26.667 0.666992 50.834 3.16699 72.501 7.5s40 12.333 55 24s26.5 27.667 34.5 48s12 46.5 12 78.5v331z" />
    <glyph glyph-name="asciitilde" unicode="~" horiz-adv-x="1128" 
d="M530 651l-64.499 27c-18.333 7.33301 -35 13.166 -50 17.499s-29.333 7.33301 -43 9s-27.834 2.5 -42.501 2.5c-18.667 0 -38 -3.16699 -58 -9.5s-39.833 -15 -59.5 -26s-38.834 -23.833 -57.501 -38.5s-36.334 -30.334 -53.001 -47.001v162
c66.667 72 149.334 108 248.001 108c19.333 0 37.333 -0.833008 54 -2.5s34.167 -4.66699 52.5 -9s38.666 -10.666 60.999 -18.999s49.166 -19.166 80.499 -32.499l64.5 -27c18.333 -7.33301 35.333 -13.166 51 -17.499s30.167 -7.33301 43.5 -9s27.333 -2.5 42 -2.5
c18.667 0 38 3.16699 58 9.5s39.833 15 59.5 26s38.834 23.833 57.501 38.5s36 30.334 52 47.001v-162c-66 -72 -148.667 -108 -248 -108c-19.333 0 -37.333 0.833008 -54 2.5s-34.167 4.66699 -52.5 9s-38.666 10.666 -60.999 18.999s-49.166 19.166 -80.499 32.499z" />
    <glyph glyph-name="guillemotleft" unicode="&#xab;" horiz-adv-x="997" 
d="M82 553l309 414l117 -78l-238 -348l238 -348l-117 -78l-309 411v27zM489 553l310 414l116 -78l-237 -348l237 -348l-116 -78l-310 411v27z" />
    <glyph glyph-name="uni00AD" unicode="&#xad;" horiz-adv-x="659" 
d="M82 465v168h496v-168h-496z" />
    <glyph glyph-name="guillemotright" unicode="&#xbb;" horiz-adv-x="997" 
d="M918 526l-310 -411l-116 78l237 348l-237 348l116 78l310 -414v-27zM510 526l-309 -411l-117 78l238 348l-238 348l117 78l309 -414v-27z" />
    <glyph glyph-name="uni1780" unicode="&#x1780;" 
d="M150 1127l0.000976562 74.999c0 34.667 21.333 72.334 64 113.001l65 61c85.333 82.667 138.666 124 159.999 124c24 0 71.333 -37.333 142 -112l53 -56c18 -19.333 36.667 -29 56 -29c16.667 0 33.334 9.66699 50.001 29l49 56c66.667 74.667 111.667 112 135 112
c22.667 0 52.667 -20.667 90 -62l116 -125c23.333 -24.667 46.666 -37 69.999 -37c16.667 0 33.334 6 50.001 18c-46 -111.333 -90.333 -167 -133 -167c-44 0 -78 13 -102 39l-76 81c-26.667 27.333 -50.667 41 -72 41c-28 0 -61 -26.667 -99 -80
c-38.667 -54 -74.334 -81 -107.001 -81c-47.333 0 -99 27 -155 81l-44 40c-28 26.667 -54.333 40 -79 40c-28 0 -49.333 -12.333 -64 -37s-22 -49 -22 -73c0 -33.333 45 -73.333 135 -120l-127 -91c-103.333 40.667 -155 94 -155 160zM250.001 -0.000976562v750
c0 200 150 300 450 300s450 -100 450 -300v-750h-200v750c0 133.333 -83.333 200 -250 200s-250 -66.667 -250 -200v-750h-200z" />
    <glyph glyph-name="uni1781" unicode="&#x1781;" 
d="M450 1025v-75c24 0 36 16.667 36 50c0 16.667 -12 25 -36 25zM1150 1200v-150c0 -126.667 -95 -232.334 -285 -317.001l-415 -185v-248c0 -133.333 83.333 -200 250 -200s250 66.667 250 200v268l200 91v-359c0 -200 -150 -300 -450 -300s-450 100 -450 300v267l476 214
c149.333 66 224 155.667 224 269v150c0 133.333 -83.333 200 -250 200s-250 -66.667 -250 -200v-75c41.333 0 74.333 -10.333 99 -31c24.667 -21.333 37 -52.666 37 -93.999c0 -100 -49.333 -150 -148 -150c-125.333 0 -188 33.333 -188 100v250c0 200 150 300 450 300
s450 -100 450 -300z" />
    <glyph glyph-name="uni1782" unicode="&#x1782;" 
d="M150 1127l0.000976562 74.999c0 34.667 21.333 72.334 64 113.001l65 61c85.333 82.667 138.666 124 159.999 124c24 0 71.333 -37.333 142 -112l53 -56c18 -19.333 36.667 -29 56 -29c16.667 0 33.334 9.66699 50.001 29l49 56c66.667 74.667 111.667 112 135 112
c22.667 0 52.667 -20.667 90 -62l116 -125c23.333 -24.667 46.666 -37 69.999 -37c16.667 0 33.334 6 50.001 18c-46 -111.333 -90.333 -167 -133 -167c-44 0 -78 13 -102 39l-76 81c-26.667 27.333 -50.667 41 -72 41c-28 0 -61 -26.667 -99 -80
c-38.667 -54 -74.334 -81 -107.001 -81c-47.333 0 -99 27 -155 81l-44 40c-28 26.667 -54.333 40 -79 40c-28 0 -49.333 -12.333 -64 -37s-22 -49 -22 -73c0 -33.333 45 -73.333 135 -120l-127 -91c-103.333 40.667 -155 94 -155 160zM450.001 318.999l32.999 53
c52.667 85.333 112.334 128 179.001 128c92 0 138 -40 138 -120c0 -53.333 -25.667 -80 -77 -80c-38 0 -57 11 -57 33s-8 33 -24 33s-40.667 -27.667 -74 -83l-49 -82l-69 -114v-87h-200v750c0 200 150 300 450 300s450 -100 450 -300v-750h-200v750
c0 133.333 -83.333 200 -250 200s-250 -66.667 -250 -200v-431z" />
    <glyph glyph-name="uni1783" unicode="&#x1783;" horiz-adv-x="2100" 
d="M250 1350c-53.333 -13.333 -80 -63.333 -80 -150c0 -66.667 26.667 -100 80 -100v250zM1050 84c-74.667 -56 -191.328 -83.999 -349.995 -83.999c-300 0 -450 100 -450 300v700c-120 0 -180 66.667 -180 200c0 86.667 21.667 158.334 65 215.001s98.333 85 165 85
c100 0 150 -33.333 150 -100v-1100c0 -133.333 83.333 -200 250 -200s250 66.667 250 200v693c0 70.667 -66.667 116.667 -200 138c13.333 67.333 48.666 145.666 105.999 234.999c56.667 89.333 103 134 139 134c29.333 0 67.666 -14.333 114.999 -43l70 -43
c20.667 -12.667 45 -19 73 -19c14.667 0 30.334 1.66699 47.001 5c-6.66699 -46.667 -22.334 -87.667 -47.001 -123c-25.333 -36 -54.333 -56 -87 -60c-4 -0.666992 -8.33301 -1 -13 -1c-32 0 -73.667 14 -125 42c-26.667 14 -49 21 -67 21
c-22.667 0 -38.667 -10.667 -48 -32l-27 -59c176 -38.667 264 -84.667 264 -138v-750c0 -133.333 83.333 -200 250 -200s250 66.667 250 200v693c0 70.667 -66.667 116.667 -200 138c13.333 67.333 48.666 145.666 105.999 234.999c56.667 89.333 103 134 139 134
c29.333 0 67.666 -14.333 114.999 -43l70 -43c20.667 -12.667 45 -19 73 -19c14.667 0 30.334 1.66699 47.001 5c-6.66699 -46.667 -22.334 -87.667 -47.001 -123c-25.333 -36 -54.333 -56 -87 -60c-4 -0.666992 -8.33301 -1 -13 -1c-32 0 -73.667 14 -125 42
c-26.667 14 -49 21 -67 21c-22.667 0 -38.667 -10.667 -48 -32l-27 -59c176 -38.667 264 -84.667 264 -138v-750c0 -200 -150 -300 -450 -300c-158.667 0 -275.334 28 -350.001 84z" />
    <glyph glyph-name="uni1784" unicode="&#x1784;" 
d="M920 1320c0 40 -16.667 60.001 -50 60.001c-46.667 0 -70 -20 -70 -60c0 -22.667 27.667 -52.334 83 -89.001c24.667 28 37 57.667 37 89zM250 791.001c-33.333 -13.333 -50 -43.667 -50 -91c0 -33.333 16.667 -50 50 -50v141zM450 142l180.001 178.997
c23.333 23.333 46.666 35 69.999 35c24 0 47.667 -11.667 71 -35l179 -179v758c0 72 -6 117.5 -18 136.5s-30 36.5 -54 52.5c-94.667 -59.333 -184 -89 -268 -89c-125.333 0 -215.666 23 -270.999 69c-59.333 50 -89 113.667 -89 191c0 43.333 8.33301 87.5 25 132.5
s25 90.833 25 137.5s-33.333 70 -100 70c0 66.667 33.333 100 100 100c133.333 0 200 -56.667 200 -170c0 -56.667 -8.33301 -104.167 -25 -142.5s-25 -80.833 -25 -127.5c0 -39.333 15 -75.666 45 -108.999c30 -34 68.333 -51 115 -51c49.333 0 107.666 18.667 174.999 56
c-70 58.667 -105 113.334 -105 164.001c0 120 63.333 180 190 180c120 0 180 -60 180 -180c0 -51.333 -22.667 -100.666 -68 -147.999l43 -22c83.333 -44.667 125 -128 125 -250v-800c0 -66.667 -33.333 -100 -100 -100s-120.667 21 -162 63l-188 187l-187 -187
c-42 -42 -96.333 -63 -163 -63s-100 33.333 -100 100v450c-100 0 -150 50 -150 150c0 133.333 66.667 200 200 200c100 0 150 -33.333 150 -100v-658z" />
    <glyph glyph-name="uni1785" unicode="&#x1785;" 
d="M950 891c-33.333 -13.333 -50 -43.667 -50 -91c0 -33.333 16.667 -50 50 -50v141zM1150 299.999c0 -200 -150.002 -299.999 -450.002 -299.999s-450 100 -450 300v710c-47.333 44 -75.833 74.5 -85.5 91.5s-14.5 38.167 -14.5 63.5c0 24.667 4.83301 45.667 14.5 63
s35.5 46.666 77.5 87.999l62 61c83.333 82 135.333 123 156 123c23.333 0 69.666 -37.333 138.999 -112l51 -56c17.333 -19.333 35.666 -29 54.999 -29c16 0 32.333 9.66699 49 29l47 56c64.667 74.667 108.334 112 131.001 112s52 -20.667 88 -62l113 -125
c22.667 -24.667 45.667 -37 69 -37c16 0 32 6 48 18c-44.667 -111.333 -87.667 -167 -129 -167c-43.333 0 -76.666 13 -99.999 39l-74 81c-25.333 27.333 -48.666 41 -69.999 41c-27.333 0 -59.666 -26.667 -96.999 -80c-37.333 -54 -72 -81 -104 -81
c-46 0 -96.333 27 -151 81l-42 40c-27.333 26.667 -53.333 40 -78 40c-14.667 0 -36 -14.333 -64 -43c-28 -29.333 -42 -55 -42 -77c0 -22.667 50.333 -65 151 -127v-741c0 -133.333 83.333 -200 250 -200s250 66.667 250 200v350c-100 0 -150 50 -150 150
c0 133.333 66.667 200 200 200c100 0 150 -33.333 150 -100v-600z" />
    <glyph glyph-name="uni1786" unicode="&#x1786;" 
d="M950 891c-33.333 -13.333 -50 -43.667 -50 -91c0 -33.333 16.667 -50 50 -50v141zM250 399.999c-33.333 0 -50 -33.333 -50 -100c0 -100 16.667 -150 50 -150v250zM1150 249.999c0 -166.667 -100.002 -249.998 -300.002 -249.998c-166.667 0 -250 83.333 -250 250
c0 100 -50 150 -150 150v-300c0 -66.667 -50 -100 -150 -100c-66.667 0 -116.667 31.667 -150 95s-50 131.666 -50 204.999c0 133.333 50 200 150 200v510c-47.333 44 -75.833 74.5 -85.5 91.5s-14.5 38.167 -14.5 63.5c0 24.667 4.83301 45.667 14.5 63
s35.5 46.666 77.5 87.999l62 61c83.333 82 135.333 123 156 123c23.333 0 69.666 -37.333 138.999 -112l51 -56c17.333 -19.333 35.666 -29 54.999 -29c16 0 32.333 9.66699 49 29l47 56c64.667 74.667 108.334 112 131.001 112s52 -20.667 88 -62l113 -125
c22.667 -24.667 45.667 -37 69 -37c16 0 32 6 48 18c-44.667 -111.333 -87.667 -167 -129 -167c-43.333 0 -76.666 13 -99.999 39l-74 81c-25.333 27.333 -48.666 41 -69.999 41c-27.333 0 -59.666 -26.667 -96.999 -80c-37.333 -54 -72 -81 -104 -81
c-46 0 -96.333 27 -151 81l-42 40c-27.333 26.667 -53.333 40 -78 40c-14.667 0 -36 -14.333 -64 -43c-28 -29.333 -42 -55 -42 -77c0 -22.667 50.333 -65 151 -127v-541c200 0 300 -83.333 300 -250c0 -100 33.333 -150 100 -150s100 50 100 150v400
c-100 0 -150 50 -150 150c0 133.333 66.667 200 200 200c100 0 150 -33.333 150 -100v-650z" />
    <glyph glyph-name="uni1787" unicode="&#x1787;" 
d="M450 142l180 178.999c23.333 23.333 46.666 35 69.999 35c24 0 47.667 -11.667 71 -35l179 -179v858h200v-900c0 -66.667 -33.333 -100 -100 -100s-120.667 21 -162 63l-188 187l-187 -187c-42 -42 -96.333 -63 -163 -63s-100 33.333 -100 100v910
c-47.333 44 -75.833 74.5 -85.5 91.5s-14.5 38.167 -14.5 63.5c0 24.667 5 45.667 15 63c9.33301 17.333 52.833 67 130.5 149s128.834 123 153.501 123c24 0 87.667 -35.667 191 -107c136 -95.333 222.667 -143 260 -143c100 0 150 40 150 120
c0 33.333 -16.667 63.333 -50 90s-70 40 -110 40c-86.667 0 -130 37 -130 111c0 59.333 43.333 89 130 89c73.333 0 135 -30 185 -90s75 -140 75 -240c0 -81.333 -26.833 -142.333 -80.5 -183s-126.834 -61 -219.501 -61c-118 0 -218.333 29 -301 87l-62 43
c-37.333 26 -65.666 39 -84.999 39c-2 0 -4 -0.333008 -6 -1c-18.667 -3.33301 -39.5 -19.666 -62.5 -48.999s-34.5 -55 -34.5 -77c0 -22.667 50.333 -65 151 -127v-899z" />
    <glyph glyph-name="uni1788" unicode="&#x1788;" horiz-adv-x="2800" 
d="M450 150c66.667 0 100 83.333 100 250c0 66.667 -33.333 100 -100 100v-350zM1750 84c-74.667 -56 -191.329 -83.998 -349.996 -83.998c-300 0 -450 100 -450 300v900c0 133.333 -83.333 200 -250 200s-250 -66.667 -250 -200v-600c133.333 0 200 -66.667 200 -200
s-20.833 -233.333 -62.5 -300s-104.167 -100 -187.5 -100c-100 0 -150 33.333 -150 100v1100c0 200 150 300 450 300s450 -100 450 -300v-900c0 -133.333 83.333 -200 250 -200s250 66.667 250 200v693c0 70.667 -66.667 116.667 -200 138
c13.333 67.333 48.666 145.666 105.999 234.999c56.667 89.333 103 134 139 134c29.333 0 67.666 -14.333 114.999 -43l70 -43c20.667 -12.667 45 -19 73 -19c14.667 0 30.334 1.66699 47.001 5c-6.66699 -46.667 -22.334 -87.667 -47.001 -123
c-25.333 -36 -54.333 -56 -87 -60c-4 -0.666992 -8.33301 -1 -13 -1c-32 0 -73.667 14 -125 42c-26.667 14 -49 21 -67 21c-22.667 0 -38.667 -10.667 -48 -32l-27 -59c176 -38.667 264 -84.667 264 -138v-750c0 -133.333 83.333 -200 250 -200s250 66.667 250 200v693
c0 70.667 -66.667 116.667 -200 138c13.333 67.333 48.666 145.666 106 234.999c56.667 89.333 103 134 139 134c29.333 0 67.666 -14.333 115 -43l70 -43c20.667 -12.667 45 -19 73 -19c14.667 0 30.334 1.66699 47 5c-6.66699 -46.667 -22.334 -87.667 -47.001 -123
c-25.333 -36 -54.333 -56 -87 -60c-4 -0.666992 -8.33301 -1 -13 -1c-32 0 -73.667 14 -125 42c-26.667 14 -49 21 -67 21c-22.667 0 -38.667 -10.667 -48 -32l-27 -59c176 -38.667 264 -84.667 264 -138v-750c0 -200 -150 -300 -450 -300
c-158.667 0 -275.334 28 -350.001 84z" />
    <glyph glyph-name="uni1789" unicode="&#x1789;" horiz-adv-x="2100" 
d="M1555 -200c0 33.333 10.001 58.3311 30.001 74.998c20.667 16.667 52 25 94 25c56 0 98.333 -16.667 127 -50c29.333 -33.333 44 -83.333 44 -150c0 -73.333 -35.333 -136.666 -106 -189.999s-163.667 -80 -279 -80c-90 0 -170.667 12.667 -242 38
c-71.333 24.667 -181.333 83 -330 175c-148.667 91.333 -262 137 -340 137c-60.667 0 -114 -9.16699 -160 -27.5s-93.667 -49.166 -143 -92.499c0 40 12.333 75.833 37 107.5s65 61.667 121 90s121 42.5 195 42.5c106 0 201.667 -15.667 287 -47s172.333 -79.333 261 -144
c168 -116.667 279.333 -175 334 -175c46.667 0 85.834 11 117.501 33s47.5 66.333 47.5 133v27c-10.667 -2 -20.334 -3 -29.001 -3c-11.333 0 -20.333 2 -27 6c-12.667 7.33301 -22.334 17.333 -29.001 30s-10 26 -10 40zM450.001 149.998c66.667 0 100 83.333 100 250
c0 66.667 -33.333 100 -100 100v-350zM1720 1436c86.667 -50 130.002 -128.666 130.002 -235.999v-1200h-200v1200c0 75.333 -26.333 129.333 -79 162c-41.333 25.333 -98.333 38 -171 38c-72 0 -128.333 -12.333 -169 -37c-54 -32.667 -81 -87 -81 -163v-1200h-200v1200
c0 69.333 -20 116.666 -60 141.999c-6.66699 4 -14 6 -22 6c-39.333 0 -95.333 -49.333 -168 -148c-72 98.667 -127.667 148 -167 148c-8.66699 0 -16.334 -2 -23.001 -6c-40 -25.333 -60 -72.666 -60 -141.999v-600c133.333 0 200 -66.667 200 -200
s-20.833 -233.333 -62.5 -300s-104.167 -100 -187.5 -100c-100 0 -150 33.333 -150 100v1100c0 81.333 36.667 151.666 110 210.999s129.666 89 168.999 89c33.333 0 90.333 -44.667 171 -134c81.333 89.333 138.666 134 171.999 134c39.333 0 95.333 -29.667 168 -89
l23 -20c22 25.333 50 46.333 84 63c64 30.667 148.333 46 253 46c138.667 0 245.334 -21.333 320.001 -64z" />
    <glyph glyph-name="uni178A" unicode="&#x178a;" 
d="M408 1314c0 -19.333 9.66602 -36 28.999 -50h24c35.333 0 53 16.667 53 50c0 16 -4 28 -12 36c-9.33301 9.33301 -23 14 -41 14c-17.333 0 -30.666 -4.33301 -39.999 -13c-8.66699 -8 -13 -20.333 -13 -37zM584.999 1221c19.333 -2 39.668 -3.66797 61.001 -5.00098
c28 -1.33301 57.667 -2 89 -2c62 0 113.333 14.333 154 43s61 75 61 139c0 69.333 -33.333 104 -100 104s-100 33.333 -100 100s33.333 100 100 100c200 0 300 -101.333 300 -304c0 -85.333 -38.833 -156 -116.5 -212s-210.834 -84 -399.501 -84
c-128 0 -224 16.833 -288 50.5s-96 86.834 -96 159.501c0 55.333 17.333 101 52 137c35.333 35.333 83 53 143 53c60.667 0 108 -14.333 142 -43c34.667 -28.667 52 -68 52 -118s-18 -89.333 -54 -118zM450.001 999.999l0.000976562 -858l180 179
c23.333 23.333 46.666 35 69.999 35c24 0 47.667 -11.667 71 -35l179 -179v858h200v-900c0 -66.667 -33.333 -100 -100 -100s-120.667 21 -162 63l-188 187l-187 -187c-42 -42 -96.333 -63 -163 -63s-100 33.333 -100 100v900h200z" />
    <glyph glyph-name="uni178B" unicode="&#x178b;" 
d="M250 1350c-53.333 -13.333 -80 -63.333 -80 -150c0 -66.667 26.667 -100 80 -100v250zM1128 1438c12.667 -10.667 23.668 -16 33.001 -16c7.33301 0 13.666 3 18.999 9c13.333 12.667 20 35.667 20 69c0 66.667 -30 100 -90 100c-73.333 0 -110 33.333 -110 100
s36.667 100 110 100c126.667 0 190 -100 190 -300h-2v-12c0 -90 -14 -160 -42 -210c-30 -52 -65 -78 -105 -78s-85.333 17.667 -136 53c-24 16 -44.333 24 -61 24c-18 0 -31.667 -10 -41 -30l-27 -59c176 -38.667 264 -84.667 264 -138v-750c0 -200 -150 -300 -450 -300
s-450 100 -450 300v700c-120 0 -180 66.667 -180 200c0 86.667 21.667 158.334 65 215.001s98.333 85 165 85c100 0 150 -33.333 150 -100v-1100c0 -133.333 83.333 -200 250 -200s250 66.667 250 200v693c0 70.667 -66.667 116.667 -200 138
c13.333 67.333 48.666 145.666 105.999 234.999c56.667 89.333 106.334 134 149.001 134c33.333 0 74.333 -20.667 123 -62z" />
    <glyph glyph-name="uni178C" unicode="&#x178c;" 
d="M450 1025v-75c24 0 36 16.667 36 50c0 16.667 -12 25 -36 25zM950 0l0.00292969 141c-100.667 -94 -220.667 -141 -360 -141c-226.667 0 -340 100 -340 300v267l476 214c149.333 66 224 155.667 224 269v150c0 69.333 -20 116.666 -60 141.999c-6.66699 4 -14 6 -22 6
c-39.333 0 -95.333 -49.333 -168 -148c-72 98.667 -127.667 148 -167 148c-8.66699 0 -16.334 -2 -23.001 -6c-40 -25.333 -60 -72.666 -60 -141.999v-75c41.333 0 74.333 -10.333 99 -31c24.667 -21.333 37 -52.666 37 -93.999c0 -100 -49.333 -150 -148 -150
c-125.333 0 -188 33.333 -188 100v250c0 81.333 36.667 151.666 110 210.999s129.666 89 168.999 89c33.333 0 90.333 -44.667 171 -134c81.333 89.333 138.666 134 171.999 134c39.333 0 95.333 -29.667 168 -89c73.333 -59.333 110 -129.666 110 -210.999v-150
c0 -126.667 -95 -232.334 -285 -317.001l-415 -185v-248c0 -133.333 46.667 -200 140 -200c113.333 0 233.333 76.333 360 229v231l200 100v-660c0 -113.333 -66.667 -170 -200 -170c-66.667 0 -100 33.333 -100 100c66.667 0 100 23.333 100 70z" />
    <glyph glyph-name="uni178D" unicode="&#x178d;" horiz-adv-x="2100" 
d="M450 150c66.667 0 100 83.333 100 250c0 66.667 -33.333 100 -100 100v-350zM950 400c-33.333 0 -50 -33.333 -50 -100c0 -100 16.667 -150 50 -150v250zM950 1200c0 69.333 -19.9951 116.668 -59.9951 142.001c-6.66699 4 -14 6 -22 6
c-39.333 0 -95.333 -49.333 -168 -148c-72 98.667 -127.667 148 -167 148c-8.66699 0 -16.334 -2 -23.001 -6c-40 -25.333 -60 -72.666 -60 -141.999v-600c133.333 0 200 -66.667 200 -200s-20.833 -233.333 -62.5 -300s-104.167 -100 -187.5 -100
c-100 0 -150 33.333 -150 100v1100c0 81.333 36.667 151.666 110 210.999s129.666 89 168.999 89c33.333 0 90.333 -44.667 171 -134c81.333 89.333 138.666 134 171.999 134c39.333 0 95.333 -29.667 168 -89c73.333 -59.333 110 -129.666 110 -210.999v-700
c200 0 300 -83.333 300 -250c0 -100 33.333 -150 100 -150s100 50 100 150v743c0 70.667 -66.667 116.667 -200 138c13.333 67.333 48.666 145.666 105.999 234.999c56.667 89.333 103 134 139 134c29.333 0 67.666 -14.333 114.999 -43l70 -43
c20.667 -12.667 45 -19 73 -19c14.667 0 30.334 1.66699 47.001 5c-6.66699 -46.667 -22.334 -87.667 -47.001 -123c-25.333 -36 -54.333 -56 -87 -60c-4 -0.666992 -8.33301 -1 -13 -1c-32 0 -73.667 14 -125 42c-26.667 14 -49 21 -67 21
c-22.667 0 -38.667 -10.667 -48 -32l-27 -59c176 -38.667 264 -84.667 264 -138v-800c0 -166.667 -100 -250 -300 -250c-166.667 0 -250 83.333 -250 250c0 100 -50 150 -150 150v-300c0 -66.667 -50 -100 -150 -100c-66.667 0 -116.667 31.667 -150 95
s-50 131.666 -50 204.999c0 133.333 50 200 150 200v700z" />
    <glyph glyph-name="uni178E" unicode="&#x178e;" horiz-adv-x="2800" 
d="M450 150c66.667 0 100 83.333 100 250c0 66.667 -33.333 100 -100 100v-350zM1150 142l180.001 179c23.333 23.333 46.666 35 69.999 35c24 0 47.667 -11.667 71 -35l179 -179v1058c0 200 150 300 450 300s450 -100 450 -300v-1200h-200v1200
c0 133.333 -83.333 200 -250 200s-250 -66.667 -250 -200v-1100c0 -66.667 -33.333 -100 -100 -100s-120.667 21 -162 63l-188 187l-187 -187c-42 -42 -96.333 -63 -163 -63s-100 33.333 -100 100v1100c0 133.333 -83.333 200 -250 200s-250 -66.667 -250 -200v-600
c133.333 0 200 -66.667 200 -200s-20.833 -233.333 -62.5 -300s-104.167 -100 -187.5 -100c-100 -0 -150 33.333 -150 100v1100c0 200 150 300 450 300s450 -100 450 -300v-1058z" />
    <glyph glyph-name="uni178F" unicode="&#x178f;" 
d="M150 1127l0.000976562 74.999c0 34.667 21.333 72.334 64 113.001l65 61c85.333 82.667 138.666 124 159.999 124c24 0 71.333 -37.333 142 -112l53 -56c18 -19.333 36.667 -29 56 -29c16.667 0 33.334 9.66699 50.001 29l49 56c66.667 74.667 111.667 112 135 112
c22.667 0 52.667 -20.667 90 -62l116 -125c23.333 -24.667 46.666 -37 69.999 -37c16.667 0 33.334 6 50.001 18c-46 -111.333 -90.333 -167 -133 -167c-44 0 -78 13 -102 39l-76 81c-26.667 27.333 -50.667 41 -72 41c-28 0 -61 -26.667 -99 -80
c-38.667 -54 -74.334 -81 -107.001 -81c-47.333 0 -99 27 -155 81l-44 40c-28 26.667 -54.333 40 -79 40c-28 0 -49.333 -12.333 -64 -37s-22 -49 -22 -73c0 -33.333 45 -73.333 135 -120l-127 -91c-103.333 40.667 -155 94 -155 160zM450.001 149.999
c53.333 0 80 50 80 150c0 66.667 -26.667 100 -80 100v-250zM450.001 499.999c120 0 179.999 -66.666 179.999 -199.999c0 -66.667 -17.5 -133.334 -52.5 -200.001s-94.167 -100 -177.5 -100c-100 0 -150 33.333 -150 100v650c0 100 37.667 175 113 225
c74.667 50 187 75 337 75s262.667 -25 338 -75c74.667 -50 112 -125 112 -225v-750h-200v750c0 66.667 -20.667 116.667 -62 150c-42 33.333 -104.667 50 -188 50s-145.666 -16.667 -186.999 -50c-42 -33.333 -63 -83.333 -63 -150v-250z" />
    <glyph glyph-name="uni1790" unicode="&#x1790;" 
d="M950 891c-33.333 -13.333 -50 -43.667 -50 -91c0 -33.333 16.667 -50 50 -50v141zM450 299.999c0 -133.333 83.332 -200.001 249.999 -200.001s250 66.667 250 200v350c-100 0 -150 50 -150 150c0 133.333 66.667 200 200 200c100 0 150 -33.333 150 -100v-600
c0 -200 -150 -300 -450 -300s-450 100 -450 300v710c-47.333 44 -75.833 74.5 -85.5 91.5s-14.5 38.167 -14.5 63.5c0 24.667 5 45.667 15 63c9.33301 17.333 52.833 67 130.5 149s128.834 123 153.501 123c24 0 87.667 -35.667 191 -107c136 -95.333 222.667 -143 260 -143
c100 0 150 40 150 120c0 33.333 -16.667 63.333 -50 90s-70 40 -110 40c-86.667 0 -130 37 -130 111c0 59.333 43.333 89 130 89c73.333 0 135 -30 185 -90s75 -140 75 -240c0 -81.333 -26.833 -142.333 -80.5 -183s-126.834 -61 -219.501 -61c-118 0 -218.333 29 -301 87
l-62 43c-37.333 26 -65.666 39 -84.999 39c-2 0 -4 -0.333008 -6 -1c-18.667 -3.33301 -39.5 -19.666 -62.5 -48.999s-34.5 -55 -34.5 -77c0 -22.667 50.333 -65 151 -127v-741z" />
    <glyph glyph-name="uni1791" unicode="&#x1791;" 
d="M914 1080c0 -20 12 -30 36 -30v55c-24 0 -36 -8.33301 -36 -25zM1000 680c33.333 0 50 8.33301 50 25s-8.33301 25 -25 25s-25 -16.667 -25 -50zM1000 302c0 -201.333 -102.667 -301.999 -308 -301.999c-228 0 -342 83.333 -342 250v250l200 -50v-200
c0 -100 47.333 -150 142 -150c72 0 108 67 108 201v279h-100c-300 0 -450 100 -450 300v320c0 200 150 300 450 300s450 -100 450 -300v-150c0 -66.667 -62.667 -100 -188 -100c-98.667 0 -148 43.333 -148 130c0 41.333 12.333 72.666 37 93.999
c24.667 20.667 57.667 31 99 31c0 130 -83.333 195 -250 195s-250 -66.667 -250 -200v-320c0 -133.333 83.333 -200 250 -200h100c0 100 75 150 225 150c83.333 0 125 -41.667 125 -125s-50 -125 -150 -125v-278z" />
    <glyph glyph-name="uni1792" unicode="&#x1792;" 
d="M950 891c-33.333 -13.333 -50 -43.667 -50 -91c0 -33.333 16.667 -50 50 -50v141zM950 649.999c-100 0 -150.001 50.001 -150.001 150.001c0 133.333 66.667 200 200 200c100 0 150 -33.333 150 -100v-800c0 -66.667 -33.333 -100 -100 -100s-120.667 21 -162 63
l-188 187l-187 -187c-42 -42 -96.333 -63 -163 -63s-100 33.333 -100 100v910c-47.333 44 -75.833 74.5 -85.5 91.5s-14.5 38.167 -14.5 63.5c0 24.667 4.83301 45.667 14.5 63s35.5 46.666 77.5 87.999l62 61c83.333 82 135.333 123 156 123
c23.333 0 69.666 -37.333 138.999 -112l51 -56c17.333 -19.333 35.666 -29 54.999 -29c16 0 32.333 9.66699 49 29l47 56c64.667 74.667 108.334 112 131.001 112s52 -20.667 88 -62l113 -125c22.667 -24.667 45.667 -37 69 -37c16 0 32 6 48 18
c-44.667 -111.333 -87.667 -167 -129 -167c-43.333 0 -76.666 13 -99.999 39l-74 81c-25.333 27.333 -48.666 41 -69.999 41c-27.333 0 -59.666 -26.667 -96.999 -80c-37.333 -54 -72 -81 -104 -81c-46 0 -96.333 27 -151 81l-42 40c-27.333 26.667 -53.333 40 -78 40
c-14.667 0 -36 -14.333 -64 -43c-28 -29.333 -42 -55 -42 -77c0 -22.667 50.333 -65 151 -127v-899l180 179c23.333 23.333 46.666 35 69.999 35c24 0 47.667 -11.667 71 -35l179 -179v508z" />
    <glyph glyph-name="uni1793" unicode="&#x1793;" 
d="M914 1000c0 -33.333 12 -50 36 -50v75c-24 0 -36 -8.33301 -36 -25zM1150 250c0 -166.667 -91.667 -250 -275 -250c-74 0 -147.333 50 -220 150s-141 150 -205 150v-200c0 -66.667 -33.333 -100 -100 -100s-100 33.333 -100 100v573l200 -90v-183
c83.333 0 165 -41.667 245 -125c79.333 -83.333 139.333 -125 180 -125c50 0 75 33.333 75 100v298l-415 185c-190 84.667 -285 190.334 -285 317.001v150c0 200 150 300 450 300s450 -100 450 -300v-250c0 -66.667 -62.667 -100 -188 -100c-98.667 0 -148 50 -148 150
c0 41.333 12.333 72.666 37 93.999c24.667 20.667 57.667 31 99 31v75c0 133.333 -83.333 200 -250 200s-250 -66.667 -250 -200v-150c0 -113.333 74.667 -203 224 -269l476 -214v-317z" />
    <glyph glyph-name="uni1794" unicode="&#x1794;" 
d="M700 0c-300 0 -449.996 100.002 -449.996 300.002v693c0 70.667 -66.667 116.667 -200 138c13.333 67.333 48.666 145.666 105.999 234.999c56.667 89.333 103 134 139 134c29.333 0 67.666 -14.333 114.999 -43l70 -43c20.667 -12.667 45 -19 73 -19
c14.667 0 30.334 1.66699 47.001 5c-6.66699 -46.667 -22.334 -87.667 -47.001 -123c-25.333 -36 -54.333 -56 -87 -60c-4 -0.666992 -8.33301 -1 -13 -1c-32 0 -73.667 14 -125 42c-26.667 14 -49 21 -67 21c-22.667 0 -38.667 -10.667 -48 -32l-27 -59
c176 -38.667 264 -84.667 264 -138v-750c0 -133.333 83.333 -200 250 -200s250 66.667 250 200v693c0 70.667 -66.667 116.667 -200 138c13.333 67.333 48.666 145.666 105.999 234.999c56.667 89.333 103 134 139 134c29.333 0 67.666 -14.333 114.999 -43l70 -43
c20.667 -12.667 45 -19 73 -19c14.667 0 30.334 1.66699 47.001 5c-6.66699 -46.667 -22.334 -87.667 -47.001 -123c-25.333 -36 -54.333 -56 -87 -60c-4 -0.666992 -8.33301 -1 -13 -1c-32 0 -73.667 14 -125 42c-26.667 14 -49 21 -67 21
c-22.667 0 -38.667 -10.667 -48 -32l-27 -59c176 -38.667 264 -84.667 264 -138v-750c0 -200 -150 -300 -450 -300z" />
    <glyph glyph-name="uni1795" unicode="&#x1795;" 
d="M950 891c-33.333 -13.333 -50 -43.667 -50 -91c0 -33.333 16.667 -50 50 -50v141zM449 1500c24 0 87.667 -35.668 191 -107.001c136 -95.333 222.667 -143 260 -143c100 0 150 40 150 120c0 33.333 -16.667 63.333 -50 90s-70 40 -110 40c-86.667 0 -130 37 -130 111
c0 59.333 43.333 89 130 89c73.333 0 135 -30 185 -90s75 -140 75 -240c0 -81.333 -26.833 -142.333 -80.5 -183s-126.834 -61 -219.501 -61c-118 0 -218.333 29 -301 87l-62 43c-37.333 26 -65.666 39 -84.999 39c-2 0 -4 -0.333008 -6 -1
c-18.667 -3.33301 -39.5 -19.666 -62.5 -48.999s-34.5 -55 -34.5 -77c0 -22.667 50.333 -65 151 -127v-899l180 179c23.333 23.333 46.666 35 69.999 35c24 0 47.667 -11.667 71 -35l179 -179v508c-100 0 -150 50 -150 150c0 133.333 66.667 200 200 200
c100 0 150 -33.333 150 -100v-800c0 -66.667 -33.333 -100 -100 -100s-120.667 21 -162 63l-188 187l-187 -187c-42 -42 -96.333 -63 -163 -63s-100 33.333 -100 100v910c-47.333 44 -75.833 74.5 -85.5 91.5s-14.5 38.167 -14.5 63.5c0 24.667 5 45.667 15 63
c9.33301 17.333 52.833 67 130.5 149s128.834 123 153.501 123z" />
    <glyph glyph-name="uni1796" unicode="&#x1796;" 
d="M450 150c66.667 0 100 83.333 100 250c0 66.667 -33.333 100 -100 100v-350zM250 1200c0 81.333 36.6699 151.666 110.003 210.999s129.666 89 168.999 89c33.333 0 90.333 -44.667 171 -134c81.333 89.333 138.666 134 171.999 134c39.333 0 95.333 -29.667 168 -89
c73.333 -59.333 110 -129.666 110 -210.999v-1200h-200v1200c0 69.333 -20 116.666 -60 141.999c-6.66699 4 -14 6 -22 6c-39.333 0 -95.333 -49.333 -168 -148c-72 98.667 -127.667 148 -167 148c-8.66699 0 -16.334 -2 -23.001 -6c-40 -25.333 -60 -72.666 -60 -141.999
v-600c133.333 0 200 -66.667 200 -200s-20.833 -233.333 -62.5 -300s-104.167 -100 -187.5 -100c-100 -0 -150 33.333 -150 100v1100z" />
    <glyph glyph-name="uni1797" unicode="&#x1797;" 
d="M150 1127l0.000976562 74.999c0 34.667 21.333 72.334 64 113.001l65 61c85.333 82.667 138.666 124 159.999 124c24 0 71.333 -37.333 142 -112l53 -56c18 -19.333 36.667 -29 56 -29c16.667 0 33.334 9.66699 50.001 29l49 56c66.667 74.667 111.667 112 135 112
c22.667 0 52.667 -20.667 90 -62l116 -125c23.333 -24.667 46.666 -37 69.999 -37c16.667 0 33.334 6 50.001 18c-46 -111.333 -90.333 -167 -133 -167c-44 0 -78 13 -102 39l-76 81c-26.667 27.333 -50.667 41 -72 41c-28 0 -61 -26.667 -99 -80
c-38.667 -54 -74.334 -81 -107.001 -81c-47.333 0 -99 27 -155 81l-44 40c-28 26.667 -54.333 40 -79 40c-28 0 -49.333 -12.333 -64 -37s-22 -49 -22 -73c0 -33.333 45 -73.333 135 -120l-127 -91c-103.333 40.667 -155 94 -155 160zM250.001 399.999
c-53.333 0 -80 -33.333 -80 -100c0 -100 26.667 -150 80 -150v250zM250.001 749.999c0 100 37.666 174.999 112.999 224.999c74.667 50 187 75 337 75s262.667 -25 338 -75c74.667 -50 112 -125 112 -225v-750h-200v750c0 66.667 -20.667 116.667 -62 150
c-42 33.333 -104.667 50 -188 50s-145.666 -16.667 -186.999 -50c-42 -33.333 -63 -83.333 -63 -150v-650c0 -66.667 -50 -100 -150 -100c-83.333 0 -142.5 33.333 -177.5 100s-52.5 133.334 -52.5 200.001c0 133.333 60 200 180 200v250z" />
    <glyph glyph-name="uni1798" unicode="&#x1798;" 
d="M950 770l0.00390625 223.002c0 70.667 -66.667 116.667 -200 138c13.333 67.333 48.666 145.666 105.999 234.999c56.667 89.333 103 134 139 134c29.333 0 67.666 -14.333 114.999 -43l70 -43c20.667 -12.667 45 -19 73 -19c14.667 0 30.334 1.66699 47.001 5
c-6.66699 -46.667 -22.334 -87.667 -47.001 -123c-25.333 -36 -54.333 -56 -87 -60c-4 -0.666992 -8.33301 -1 -13 -1c-32 0 -73.667 14 -125 42c-26.667 14 -49 21 -67 21c-22.667 0 -38.667 -10.667 -48 -32l-27 -59c176 -38.667 264 -84.667 264 -138v-750
c0 -200 -150 -300 -450 -300s-450 100 -450 300v693c0 70.667 -66.667 116.667 -200 138c13.333 67.333 48.666 145.666 105.999 234.999c56.667 89.333 103 134 139 134c29.333 0 67.666 -14.333 114.999 -43l70 -43c20.667 -12.667 45 -19 73 -19
c14.667 0 30.334 1.66699 47.001 5c-6.66699 -46.667 -22.334 -87.667 -47.001 -123c-25.333 -36 -54.333 -56 -87 -60c-4 -0.666992 -8.33301 -1 -13 -1c-32 0 -73.667 14 -125 42c-26.667 14 -49 21 -67 21c-22.667 0 -38.667 -10.667 -48 -32l-27 -59
c176 -38.667 264 -84.667 264 -138v-280h500zM950.004 670.002h-500v-370c0 -133.333 83.333 -200 250 -200s250 66.667 250 200v370z" />
    <glyph glyph-name="uni1799" unicode="&#x1799;" horiz-adv-x="2100" 
d="M450 1100c33.333 0 50 33.333 50 100c0 100 -16.667 150 -50 150v-250zM250 1400c0 66.667 50.0059 100.003 150.006 100.003c63.333 0 112.5 -33.333 147.5 -100s52.5 -133.334 52.5 -200.001c0 -133.333 -50 -200 -150 -200v-700c0 -133.333 83.333 -200 250 -200
s250 66.667 250 200v693c0 70.667 -66.667 116.667 -200 138c13.333 67.333 48.666 145.666 105.999 234.999c56.667 89.333 103 134 139 134c29.333 0 67.666 -14.333 114.999 -43l70 -43c20.667 -12.667 45 -19 73 -19c14.667 0 30.334 1.66699 47.001 5
c-6.66699 -46.667 -22.334 -87.667 -47.001 -123c-25.333 -36 -54.333 -56 -87 -60c-4 -0.666992 -8.33301 -1 -13 -1c-32 0 -73.667 14 -125 42c-26.667 14 -49 21 -67 21c-22.667 0 -38.667 -10.667 -48 -32l-27 -59c176 -38.667 264 -84.667 264 -138v-750
c0 -133.333 83.333 -200 250 -200s250 66.667 250 200v693c0 70.667 -66.667 116.667 -200 138c13.333 67.333 48.666 145.666 105.999 234.999c56.667 89.333 103 134 139 134c29.333 0 67.666 -14.333 114.999 -43l70 -43c20.667 -12.667 45 -19 73 -19
c14.667 0 30.334 1.66699 47.001 5c-6.66699 -46.667 -22.334 -87.667 -47.001 -123c-25.333 -36 -54.333 -56 -87 -60c-4 -0.666992 -8.33301 -1 -13 -1c-32 0 -73.667 14 -125 42c-26.667 14 -49 21 -67 21c-22.667 0 -38.667 -10.667 -48 -32l-27 -59
c176 -38.667 264 -84.667 264 -138v-750c0 -200 -150 -300 -450 -300c-158.667 0 -275.334 28 -350.001 84c-74.667 -56 -191.334 -84 -350.001 -84c-300 0 -450 100 -450 300v1100z" />
    <glyph glyph-name="uni179A" unicode="&#x179a;" horiz-adv-x="700" 
d="M250 400c-53.333 0 -80 -33.333 -80 -100c0 -100 26.667 -150 80 -150v250zM450 100c0 -66.667 -49.998 -100 -149.998 -100c-83.333 -0 -142.5 33.333 -177.5 100s-52.5 133.334 -52.5 200.001c0 133.333 60 200 180 200v493c0 70.667 -66.667 116.667 -200 138
c13.333 67.333 48.666 145.666 105.999 234.999c56.667 89.333 103 134 139 134c29.333 0 67.666 -14.333 114.999 -43l70 -43c20.667 -12.667 45 -19 73 -19c14.667 0 30.334 1.66699 47.001 5c-6.66699 -46.667 -22.334 -87.667 -47.001 -123
c-25.333 -36 -54.333 -56 -87 -60c-4 -0.666992 -8.33301 -1 -13 -1c-32 0 -73.667 14 -125 42c-26.667 14 -49 21 -67 21c-22.667 0 -38.667 -10.667 -48 -32l-27 -59c176 -38.667 264 -84.667 264 -138v-950z" />
    <glyph glyph-name="uni179B" unicode="&#x179b;" horiz-adv-x="2100" 
d="M450 150c66.667 0 100 83.333 100 250c0 66.667 -33.333 100 -100 100v-350zM950 1200c0 133.333 -83.3311 200.001 -249.998 200.001s-250 -66.667 -250 -200v-600c133.333 0 200 -66.667 200 -200s-20.833 -233.333 -62.5 -300s-104.167 -100 -187.5 -100
c-100 0 -150 33.333 -150 100v1100c0 200 150 300 450 300s450 -100 450 -300v-900c0 -133.333 83.333 -200 250 -200s250 66.667 250 200v693c0 70.667 -66.667 116.667 -200 138c13.333 67.333 48.666 145.666 105.999 234.999c56.667 89.333 103 134 139 134
c29.333 0 67.666 -14.333 114.999 -43l70 -43c20.667 -12.667 45 -19 73 -19c14.667 0 30.334 1.66699 47.001 5c-6.66699 -46.667 -22.334 -87.667 -47.001 -123c-25.333 -36 -54.333 -56 -87 -60c-4 -0.666992 -8.33301 -1 -13 -1c-32 0 -73.667 14 -125 42
c-26.667 14 -49 21 -67 21c-22.667 0 -38.667 -10.667 -48 -32l-27 -59c176 -38.667 264 -84.667 264 -138v-750c0 -200 -150 -300 -450 -300s-450 100 -450 300v900z" />
    <glyph glyph-name="uni179C" unicode="&#x179c;" horiz-adv-x="700" 
d="M250 400c-53.333 0 -80 -33.333 -80 -100c0 -100 26.667 -150 80 -150v250zM450 100c0 -66.667 -49.999 -100 -149.999 -100c-83.333 -0 -142.5 33.333 -177.5 100s-52.5 133.334 -52.5 200.001c0 133.333 60 200 180 200v493c0 70.667 -66.667 116.667 -200 138
c13.333 67.333 48.666 145.666 105.999 234.999c56.667 89.333 106.334 134 149.001 134c33.333 0 74.333 -20.667 123 -62c12.667 -10.667 23.667 -16 33 -16c7.33301 0 13.666 3 18.999 9c13.333 12.667 20 35.667 20 69c0 66.667 -30 100 -90 100
c-73.333 0 -110 33.333 -110 100s36.667 100 110 100c126.667 0 190 -100 190 -300c0 -96 -14.833 -170 -44.5 -222s-64.5 -78 -104.5 -78s-85.333 17.667 -136 53c-24 16 -44.333 24 -61 24c-18 0 -31.667 -10 -41 -30l-27 -59c176 -38.667 264 -84.667 264 -138v-950z" />
    <glyph glyph-name="uni179D" unicode="&#x179d;" 
d="M305 967c-103.333 40.667 -154.999 93.999 -154.999 159.999v75c0 34.667 21.333 72.334 64 113.001l65 61c85.333 82.667 138.666 124 159.999 124c24 0 71.333 -37.333 142 -112l53 -56c18 -19.333 36.667 -29 56 -29c16.667 0 33.334 9.66699 50.001 29l49 56
c66.667 74.667 111.667 112 135 112c22.667 0 52.667 -20.667 90 -62l116 -125c23.333 -24.667 46.666 -37 69.999 -37c16.667 0 33.334 6 50.001 18c-46 -111.333 -90.333 -167 -133 -167c-44 0 -78 13 -102 39l-76 81c-26.667 27.333 -50.667 41 -72 41
c-28 0 -61 -26.667 -99 -80c-38.667 -54 -74.334 -81 -107.001 -81c-47.333 0 -99 27 -155 81l-44 40c-28 26.667 -54.333 40 -79 40c-28 0 -49.333 -12.333 -64 -37s-22 -49 -22 -73c0 -33.333 45 -73.333 135 -120l-100 -72zM1150 749.999l-0.000976562 -249.999h150v-100
h-150v-400h-200v400h-120v100h120v250c0 61.333 -17.667 108.666 -53 141.999c-41.333 38.667 -107 58 -197 58c-88.667 0 -153.667 -18.667 -195 -56c-36.667 -33.333 -55 -81.333 -55 -144v-431l33 53c52.667 85.333 112.334 128 179.001 128c92 0 138 -40 138 -120
c0 -53.333 -25.667 -80 -77 -80c-38 0 -57 11 -57 33s-8 33 -24 33s-40.667 -27.667 -74 -83l-49 -82l-69 -114v-87h-200v750c0 96 34.333 169 103 219c75.333 54 191 81 347 81c158.667 0 275.667 -28 351 -84c66 -50 99 -122 99 -216z" />
    <glyph glyph-name="uni179E" unicode="&#x179e;" 
d="M1150 700l0.00390625 -399.998c0 -200 -150 -300 -450 -300s-450 100 -450 300v693c0 70.667 -66.667 116.667 -200 138c13.333 67.333 48.666 145.666 105.999 234.999c56.667 89.333 103 134 139 134c29.333 0 67.666 -14.333 114.999 -43l70 -43
c20.667 -12.667 45 -19 73 -19c14.667 0 30.334 1.66699 47.001 5c-6.66699 -46.667 -22.334 -87.667 -47.001 -123c-25.333 -36 -54.333 -56 -87 -60c-4 -0.666992 -8.33301 -1 -13 -1c-32 0 -73.667 14 -125 42c-26.667 14 -49 21 -67 21
c-22.667 0 -38.667 -10.667 -48 -32l-27 -59c176 -38.667 264 -84.667 264 -138v-750c0 -133.333 83.333 -200 250 -200s250 66.667 250 200v400h-150v100h150v193c0 70.667 -66.667 116.667 -200 138c13.333 67.333 48.666 145.666 105.999 234.999
c56.667 89.333 103 134 139 134c29.333 0 67.666 -14.333 114.999 -43l70 -43c20.667 -12.667 45 -19 73 -19c14.667 0 30.334 1.66699 47.001 5c-6.66699 -46.667 -22.334 -87.667 -47.001 -123c-25.333 -36 -54.333 -56 -87 -60c-4 -0.666992 -8.33301 -1 -13 -1
c-32 0 -73.667 14 -125 42c-26.667 14 -49 21 -67 21c-22.667 0 -38.667 -10.667 -48 -32l-27 -59c176 -38.667 264 -84.667 264 -138v-250h150v-100h-150z" />
    <glyph glyph-name="uni179F" unicode="&#x179f;" horiz-adv-x="2100" 
d="M450 150c53.333 0 80 50 80 150c0 66.667 -26.667 100 -80 100v-250zM750 1049c125.333 -5.33301 221.334 -29.9971 288.001 -73.9971c74.667 -50 112 -125 112 -225v-450c0 -133.333 83.333 -200 250 -200s250 66.667 250 200v693c0 70.667 -66.667 116.667 -200 138
c13.333 67.333 48.666 145.666 105.999 234.999c56.667 89.333 103 134 139 134c29.333 0 67.666 -14.333 114.999 -43l70 -43c20.667 -12.667 45 -19 73 -19c14.667 0 30.334 1.66699 47.001 5c-6.66699 -46.667 -22.334 -87.667 -47.001 -123
c-25.333 -36 -54.333 -56 -87 -60c-4 -0.666992 -8.33301 -1 -13 -1c-32 0 -73.667 14 -125 42c-26.667 14 -49 21 -67 21c-22.667 0 -38.667 -10.667 -48 -32l-27 -59c176 -38.667 264 -84.667 264 -138v-750c0 -200 -150 -300 -450 -300s-450 100 -450 300v450
c0 66.667 -20.667 116.667 -62 150c-42 33.333 -104.667 50 -188 50s-145.666 -16.667 -186.999 -50c-42 -33.333 -63 -83.333 -63 -150v-250c120 0 180 -66.667 180 -200c0 -66.667 -17.5 -133.334 -52.5 -200.001s-94.167 -100 -177.5 -100c-100 0 -150 33.333 -150 100
v650c0 100 37.667 175 113 225c45.333 30 104 51 176 63c-27.333 45.333 -107 76.333 -239 93c16 67.333 57.667 145.666 125 234.999c66.667 89.333 121.334 134 164.001 134c34.667 0 80 -14.333 136 -43l82 -43c24.667 -12.667 53.667 -19 87 -19
c17.333 0 35.666 1.66699 54.999 5c-8 -46.667 -26.333 -87.667 -55 -123c-30 -36 -64.333 -56 -103 -60c-5.33301 -0.666992 -10.666 -1 -15.999 -1c-38 0 -89 14 -153 42c-32.667 14 -60.334 21 -83.001 21c-28 0 -48.667 -10.667 -62 -32l-37 -59
c206.667 -38.667 310 -84.667 310 -138v-1z" />
    <glyph glyph-name="uni17A0" unicode="&#x17a0;" horiz-adv-x="2100" 
d="M1150 300c0 -200 -149.998 -299.999 -449.998 -299.999s-450 100 -450 300v693c0 70.667 -66.667 116.667 -200 138c13.333 67.333 48.666 145.666 105.999 234.999c56.667 89.333 103 134 139 134c29.333 0 67.666 -14.333 114.999 -43l70 -43
c20.667 -12.667 45 -19 73 -19c14.667 0 30.334 1.66699 47.001 5c-6.66699 -46.667 -22.334 -87.667 -47.001 -123c-25.333 -36 -54.333 -56 -87 -60c-4 -0.666992 -8.33301 -1 -13 -1c-32 0 -73.667 14 -125 42c-26.667 14 -49 21 -67 21
c-22.667 0 -38.667 -10.667 -48 -32l-27 -59c176 -38.667 264 -84.667 264 -138v-750c0 -133.333 83.333 -200 250 -200s250 66.667 250 200v900c0 200 150 300 450 300s450 -100 450 -300v-1200h-200v1200c0 133.333 -83.333 200 -250 200s-250 -66.667 -250 -200v-900z
" />
    <glyph glyph-name="uni17A1" unicode="&#x17a1;" horiz-adv-x="2100" 
d="M950 -350c-66.667 0 -99.9971 23.333 -99.9971 70c0 36.667 23.333 75.834 70 117.501s90 62.5 130 62.5c66.667 0 100 -33.333 100 -100v-308l180 179c23.333 23.333 46.666 35 69.999 35c24 0 47.667 -11.667 71 -35l179 -179v1501c0 70.667 -66.667 116.667 -200 138
c13.333 67.333 48.666 145.666 105.999 234.999c56.667 89.333 103 134 139 134c29.333 0 67.666 -14.333 114.999 -43l70 -43c20.667 -12.667 45 -19 73 -19c14.667 0 30.334 1.66699 47.001 5c-6.66699 -46.667 -22.334 -87.667 -47.001 -123
c-25.333 -36 -54.333 -56 -87 -60c-4 -0.666992 -8.33301 -1 -13 -1c-32 0 -73.667 14 -125 42c-26.667 14 -49 21 -67 21c-22.667 0 -38.667 -10.667 -48 -32l-27 -59c176 -38.667 264 -84.667 264 -138v-1600c0 -66.667 -33.333 -100 -100 -100s-120.667 21 -162 63
l-188 187l-187 -187c-42 -42 -96.333 -63 -163 -63s-100 33.333 -100 100v200zM914.003 1080c0 -20 12 -30 36 -30v55c-24 0 -36 -8.33301 -36 -25zM1000 680c33.333 0 50 8.33301 50 25s-8.33301 25 -25 25s-25 -16.667 -25 -50zM1000 302
c0 -201.333 -102.667 -301.999 -308 -301.999c-228 0 -342 83.333 -342 250v250l200 -50v-200c0 -100 47.333 -150 142 -150c72 0 108 67 108 201v279h-100c-300 0 -450 100 -450 300v320c0 200 150 300 450 300s450 -100 450 -300v-150c0 -66.667 -62.667 -100 -188 -100
c-98.667 0 -148 43.333 -148 130c0 41.333 12.333 72.666 37 93.999c24.667 20.667 57.667 31 99 31c0 130 -83.333 195 -250 195s-250 -66.667 -250 -200v-320c0 -133.333 83.333 -200 250 -200h100c0 100 75 150 225 150c83.333 0 125 -41.667 125 -125
s-50 -125 -150 -125v-278z" />
    <glyph glyph-name="uni17A2" unicode="&#x17a2;" 
d="M250 400c-53.333 0 -80 -33.333 -80 -100c0 -100 26.667 -150 80 -150v250zM950 400c-53.333 0 -80 -33.333 -80 -100c0 -100 26.667 -150 80 -150v250zM450 100c0 -66.667 -49.9961 -100 -149.996 -100c-83.333 -0 -142.5 33.333 -177.5 100
s-52.5 133.334 -52.5 200.001c0 133.333 60 200 180 200v493c0 70.667 -66.667 116.667 -200 138c13.333 67.333 48.666 145.666 105.999 234.999c56.667 89.333 103 134 139 134c29.333 0 67.666 -14.333 114.999 -43l70 -43c20.667 -12.667 45 -19 73 -19
c14.667 0 30.334 1.66699 47.001 5c-6.66699 -46.667 -22.334 -87.667 -47.001 -123c-25.333 -36 -54.333 -56 -87 -60c-4 -0.666992 -8.33301 -1 -13 -1c-32 0 -73.667 14 -125 42c-26.667 14 -49 21 -67 21c-22.667 0 -38.667 -10.667 -48 -32l-27 -59
c176 -38.667 264 -84.667 264 -138v-250h500v193c0 70.667 -66.667 116.667 -200 138c13.333 67.333 48.666 145.666 105.999 234.999c56.667 89.333 103 134 139 134c29.333 0 67.666 -14.333 114.999 -43l70 -43c20.667 -12.667 45 -19 73 -19
c14.667 0 30.334 1.66699 47.001 5c-6.66699 -46.667 -22.334 -87.667 -47.001 -123c-25.333 -36 -54.333 -56 -87 -60c-4 -0.666992 -8.33301 -1 -13 -1c-32 0 -73.667 14 -125 42c-26.667 14 -49 21 -67 21c-22.667 0 -38.667 -10.667 -48 -32l-27 -59
c176 -38.667 264 -84.667 264 -138v-950c0 -66.667 -50 -100 -150 -100c-83.333 0 -142.5 33.333 -177.5 100s-52.5 133.334 -52.5 200.001c0 133.333 60 200 180 200v200h-500v-600z" />
    <glyph glyph-name="uni17A3" unicode="&#x17a3;" 
d="M250 400c-53.333 0 -80 -33.333 -80 -100c0 -100 26.667 -150 80 -150v250zM950 400c-53.333 0 -80 -33.333 -80 -100c0 -100 26.667 -150 80 -150v250zM450 100c0 -66.667 -49.9961 -100 -149.996 -100c-83.333 -0 -142.5 33.333 -177.5 100
s-52.5 133.334 -52.5 200.001c0 133.333 60 200 180 200v493c0 70.667 -66.667 116.667 -200 138c13.333 67.333 48.666 145.666 105.999 234.999c56.667 89.333 103 134 139 134c29.333 0 67.666 -14.333 114.999 -43l70 -43c20.667 -12.667 45 -19 73 -19
c14.667 0 30.334 1.66699 47.001 5c-6.66699 -46.667 -22.334 -87.667 -47.001 -123c-25.333 -36 -54.333 -56 -87 -60c-4 -0.666992 -8.33301 -1 -13 -1c-32 0 -73.667 14 -125 42c-26.667 14 -49 21 -67 21c-22.667 0 -38.667 -10.667 -48 -32l-27 -59
c176 -38.667 264 -84.667 264 -138v-250h500v193c0 70.667 -66.667 116.667 -200 138c13.333 67.333 48.666 145.666 105.999 234.999c56.667 89.333 103 134 139 134c29.333 0 67.666 -14.333 114.999 -43l70 -43c20.667 -12.667 45 -19 73 -19
c14.667 0 30.334 1.66699 47.001 5c-6.66699 -46.667 -22.334 -87.667 -47.001 -123c-25.333 -36 -54.333 -56 -87 -60c-4 -0.666992 -8.33301 -1 -13 -1c-32 0 -73.667 14 -125 42c-26.667 14 -49 21 -67 21c-22.667 0 -38.667 -10.667 -48 -32l-27 -59
c176 -38.667 264 -84.667 264 -138v-950c0 -66.667 -50 -100 -150 -100c-83.333 0 -142.5 33.333 -177.5 100s-52.5 133.334 -52.5 200.001c0 133.333 60 200 180 200v200h-500v-600z" />
    <glyph glyph-name="uni17A4" unicode="&#x17a4;" horiz-adv-x="2100" 
d="M250 400c-53.333 0 -80 -33.333 -80 -100c0 -100 26.667 -150 80 -150v250zM950 400c-53.333 0 -80 -33.333 -80 -100c0 -100 26.667 -150 80 -150v250zM1150 100c0 -66.667 -50 -100 -150 -100c-83.333 -0 -142.5 33.333 -177.5 100s-52.5 133.334 -52.5 200.001
c0 133.333 60 200 180 200v200h-500v-600c0 -66.667 -50 -100 -150 -100c-83.333 0 -142.5 33.333 -177.5 100s-52.5 133.334 -52.5 200.001c0 133.333 60 200 180 200v493c0 70.667 -66.667 116.667 -200 138c13.333 67.333 48.666 145.666 105.999 234.999
c56.667 89.333 103 134 139 134c29.333 0 67.666 -14.333 114.999 -43l70 -43c20.667 -12.667 45 -19 73 -19c14.667 0 30.334 1.66699 47.001 5c-6.66699 -46.667 -22.334 -87.667 -47.001 -123c-25.333 -36 -54.333 -56 -87 -60c-4 -0.666992 -8.33301 -1 -13 -1
c-32 0 -73.667 14 -125 42c-26.667 14 -49 21 -67 21c-22.667 0 -38.667 -10.667 -48 -32l-27 -59c176 -38.667 264 -84.667 264 -138v-250h500v193c0 70.667 -66.667 116.667 -200 138c20.667 67.333 75.334 145.666 164.001 234.999c87.333 89.333 159 134 215 134
c82 0 173.333 -19.333 274 -58l227 -89c146.667 -58 220 -159 220 -303v-1050h-200v1050c0 54 -26 91.333 -78 112l-248 97c-83.333 32.667 -154.333 49 -213 49c-65.333 0 -115.666 -20.333 -150.999 -61l-50 -59c160 -38.667 240 -84.667 240 -138v-950z" />
    <glyph glyph-name="uni17A5" unicode="&#x17a5;" 
d="M449 1500c24 0 87.667 -35.668 191 -107.001c136 -95.333 222.667 -143 260 -143c100 0 150 40 150 120c0 33.333 -16.667 63.333 -50 90s-70 40 -110 40c-86.667 0 -130 37 -130 111c0 59.333 43.333 89 130 89c73.333 0 135 -30 185 -90s75 -140 75 -240
c0 -81.333 -26.833 -142.333 -80.5 -183s-126.834 -61 -219.501 -61c-118 0 -218.333 29 -301 87l-62 43c-37.333 26 -65.666 39 -84.999 39c-2 0 -4 -0.333008 -6 -1c-18.667 -3.33301 -39.5 -19.666 -62.5 -48.999s-34.5 -55 -34.5 -77c0 -22.667 48.667 -59.667 146 -111
l-124 -76c-94.667 63.333 -146.834 103.5 -156.501 120.5s-14.5 38.167 -14.5 63.5c0 24.667 5 45.667 15 63c9.33301 17.333 52.833 67 130.5 149s128.834 123 153.501 123zM450 149.999c53.333 0 80 50 80 150c0 66.667 -26.667 100 -80 100v-250zM450 499.999
c120 0 179.999 -66.666 179.999 -199.999c0 -66.667 -17.5 -133.334 -52.5 -200.001s-94.167 -100 -177.5 -100c-100 0 -150 33.333 -150 100v650c0 100 37.667 175 113 225c74.667 50 187 75 337 75s262.667 -25 338 -75c74.667 -50 112 -125 112 -225v-750h-200v750
c0 66.667 -20.667 116.667 -62 150c-42 33.333 -104.667 50 -188 50s-145.666 -16.667 -186.999 -50c-42 -33.333 -63 -83.333 -63 -150v-250z" />
    <glyph glyph-name="uni17A6" unicode="&#x17a6;" horiz-adv-x="2100" 
d="M450 150c66.667 0 100 83.333 100 250c0 66.667 -33.333 100 -100 100v-350zM950 1200c0 133.333 -83.333 200 -250 200s-250 -66.667 -250 -200v-600c133.333 0 200 -66.667 200 -200s-20.833 -233.333 -62.5 -300s-104.167 -100 -187.5 -100
c-100 -0 -150 33.333 -150 100v1100c0 200 150 300 450 300s450 -100 450 -300v-1200h-200v1200zM1850 -450c0 -133.333 -153.998 -199.999 -461.998 -199.999c-308.667 0 -463 66.667 -463 200v100c0 100 -75 150 -225 150s-225 -50 -225 -150v-50
c52 0 87.333 -8.33301 106 -25c18 -16.667 27 -37 27 -61c0 -50.667 -24 -90.667 -72 -120c-48.667 -29.333 -94.334 -44 -137.001 -44c-82.667 0 -124 33.333 -124 100v200c0 166.667 141.667 250 425 250s425 -83.333 425 -250v-100c0 -66.667 87.667 -100 263 -100
c174.667 0 262 33.333 262 100v1443c0 70.667 -66.667 116.667 -200 138c13.333 67.333 48.666 145.666 105.999 234.999c56.667 89.333 106.334 134 149.001 134c33.333 0 74.333 -20.667 123 -62c12.667 -10.667 23.667 -16 33 -16c7.33301 0 13.666 3 18.999 9
c13.333 12.667 20 35.667 20 69c0 66.667 -30 100 -90 100c-73.333 0 -110 33.333 -110 100s36.667 100 110 100c126.667 0 190 -100 190 -300h-2v-12c0 -90 -14 -160 -42 -210c-30 -52 -65 -78 -105 -78s-85.333 17.667 -136 53c-24 16 -44.333 24 -61 24
c-18 0 -31.667 -10 -41 -30l-27 -59c176 -38.667 264 -84.667 264 -138v-1500z" />
    <glyph glyph-name="uni17A7" unicode="&#x17a7;" 
d="M450 1025v-75c24 0 36 16.667 36 50c0 16.667 -12 25 -36 25zM527 1360c-51.333 -32.667 -76.999 -86 -76.999 -160v-75c41.333 0 74.333 -10.333 99 -31c24.667 -21.333 37 -52.666 37 -93.999c0 -100 -49.333 -150 -148 -150c-125.333 0 -188 33.333 -188 100v250
c0 106.667 43 185 129 235c74.667 43.333 181.667 65 321 65c138.667 0 245.334 -21.333 320.001 -64c86.667 -50 130 -128.667 130 -236v-150c0 -126.667 -95 -232.334 -285 -317.001l-415 -185v-248c0 -68 12 -118.667 36 -152c23.333 -32 58 -48 104 -48
c45.333 0 92 12.333 140 37c70.667 36.667 144 100.667 220 192v231l200 100v-660c0 -113.333 -66.667 -170 -200 -170c-66.667 0 -100 33.333 -100 100c66.667 0 100 23.333 100 70v141c-49.333 -46 -103.333 -80.667 -162 -104c-61.333 -24.667 -127.333 -37 -198 -37
c-104 0 -184 21 -240 63c-66.667 49.333 -100 128.333 -100 237v267l476 214c149.333 66 224 155.667 224 269v150c0 75.333 -26.667 129.333 -80 162c-40.667 25.333 -97.334 38 -170.001 38c-74.667 0 -132.334 -13.333 -173.001 -40z" />
    <glyph glyph-name="uni17A8" unicode="&#x17a8;" 
d="M150 1585l0.000976562 74.999c0 34.667 21.333 72.334 64 113.001l65 61c85.333 82.667 138.666 124 159.999 124c24 0 71.333 -37.333 142 -112l53 -56c18 -19.333 36.667 -29 56 -29c16.667 0 33.334 9.66699 50.001 29l49 56c66.667 74.667 111.667 112 135 112
c22.667 0 52.667 -20.667 90 -62l116 -125c23.333 -24.667 46.666 -37 69.999 -37c16.667 0 33.334 6 50.001 18c-46 -111.333 -90.333 -167 -133 -167c-44 0 -78 13 -102 39l-76 81c-26.667 27.333 -50.667 41 -72 41c-28 0 -61 -26.667 -99 -80
c-38.667 -54 -74.334 -81 -107.001 -81c-47.333 0 -99 27 -155 81l-44 40c-28 26.667 -54.333 40 -79 40c-28 0 -49.333 -12.333 -64 -37s-22 -49 -22 -73c0 -33.333 45 -73.333 135 -120l-127 -91c-103.333 40.667 -155 94 -155 160zM450.001 1025v-75
c24 0 36 16.667 36 50c0 16.667 -12 25 -36 25zM527.001 1360c-51.333 -32.667 -76.999 -86 -76.999 -160v-75c41.333 0 74.333 -10.333 99 -31c24.667 -21.333 37 -52.666 37 -93.999c0 -100 -49.333 -150 -148 -150c-125.333 0 -188 33.333 -188 100v250
c0 106.667 43 185 129 235c74.667 43.333 181.667 65 321 65c138.667 0 245.334 -21.333 320.001 -64c86.667 -50 130 -128.667 130 -236v-150c0 -126.667 -95 -232.334 -285 -317.001l-415 -185v-248c0 -68 12 -118.667 36 -152c23.333 -32 58 -48 104 -48
c45.333 0 92 12.333 140 37c70.667 36.667 144 100.667 220 192v231l200 100v-660c0 -113.333 -66.667 -170 -200 -170c-66.667 0 -100 33.333 -100 100c66.667 0 100 23.333 100 70v141c-49.333 -46 -103.333 -80.667 -162 -104c-61.333 -24.667 -127.333 -37 -198 -37
c-104 0 -184 21 -240 63c-66.667 49.333 -100 128.333 -100 237v267l476 214c149.333 66 224 155.667 224 269v150c0 75.333 -26.667 129.333 -80 162c-40.667 25.333 -97.334 38 -170.001 38c-74.667 0 -132.334 -13.333 -173.001 -40z" />
    <glyph glyph-name="uni17A9" unicode="&#x17a9;" horiz-adv-x="1500" 
d="M1312 583l188 90v-673c0 -66.667 -31.333 -100 -94 -100s-94 33.333 -94 100v583zM450 1025v-75c24 0 36 16.667 36 50c0 16.667 -12 25 -36 25zM527 1360c-51.333 -32.667 -76.999 -86 -76.999 -160v-75c41.333 0 74.333 -10.333 99 -31
c24.667 -21.333 37 -52.666 37 -93.999c0 -100 -49.333 -150 -148 -150c-125.333 0 -188 33.333 -188 100v250c0 106.667 43 185 129 235c74.667 43.333 181.667 65 321 65c138.667 0 245.334 -21.333 320.001 -64c86.667 -50 130 -128.667 130 -236v-150
c0 -126.667 -95 -232.334 -285 -317.001l-415 -185v-248c0 -68 12 -118.667 36 -152c23.333 -32 58 -48 104 -48c45.333 0 92 12.333 140 37c70.667 36.667 144 100.667 220 192v231l200 100v-660c0 -113.333 -66.667 -170 -200 -170c-66.667 0 -100 33.333 -100 100
c66.667 0 100 23.333 100 70v141c-49.333 -46 -103.333 -80.667 -162 -104c-61.333 -24.667 -127.333 -37 -198 -37c-104 0 -184 21 -240 63c-66.667 49.333 -100 128.333 -100 237v267l476 214c149.333 66 224 155.667 224 269v150c0 75.333 -26.667 129.333 -80 162
c-40.667 25.333 -97.334 38 -170.001 38c-74.667 0 -132.334 -13.333 -173.001 -40z" />
    </font>
</defs>
</svg>
